<?xml version="1.0" encoding="utf-8"?>
<!-- Generator: Adobe Illustrator 18.1.1, SVG Export Plug-In . SVG Version: 6.00 Build 0)  -->
<svg version="1.1" xmlns="http://www.w3.org/2000/svg" xmlns:xlink="http://www.w3.org/1999/xlink" x="0px" y="0px"
	 viewBox="0 0 237 406.5" enable-background="new 0 0 237 406.5" xml:space="preserve">
<g id="Layer_1">
</g>
<g id="Layer_2">
	<rect x="15.1" y="20.6" transform="matrix(0.999 4.543814e-02 -4.543814e-02 0.999 9.7228 -5.1689)" width="207" height="381.4"/>
	<g>
		<path fill="#FFFFFF" d="M28.8,76.7c0.1-14-0.7-31.4-0.1-44.2c0.1-2.8,8.1-2.2,11.3-2.3c4.2,0.2,9.8-1.2,9.6,4.5
			c0,0.4-0.1,1.7-15.3,1l0.5,21.8l10.1,0.3c1.7,0.1,2.8,2.3,2.7,3.7c-0.1,3-9.7,1.3-12.7,1.6l0,6.4c0,16-0.3,20.7-1,36.6
			c-0.1,1.6-1.1,2.7-2.7,2.7c-1,0-2.8-0.5-3.2-1.6C28.3,101,28.7,82.9,28.8,76.7z"/>
		<path fill="#FFFFFF" d="M62.4,37.8c1.1-10.2,7.7-7.2,9.2,0.4c2.3,11.2,3.9,21.4,13.3,80.7c-0.1,2.4-3.5,4.2-5.4,0.5l-3.1-20.1
			l-15.1,1.5c-1.1,5.2-2.3,15-2.8,19.7c-0.3,2.7-5.1,1.8-4.9-0.2L62.4,37.8z M62.9,17.2l7.4-4.3c0.2-0.1,1-0.4,1-0.4
			c1.4,0.1,3,1.5,3,2.9c0,0.8,0.1,0.9-0.6,1.3L67.9,20l-4.2,2.9c-0.7,0.5-0.9,0.5-1.6,0.5c-1.4-0.1-2.6-1.2-2.5-2.7
			C59.6,19,61.5,18.1,62.9,17.2z M62.2,89.5c-0.1,0.8-0.5,5.1-0.5,6l14-1.4L67,44.3C66.3,51.1,62.8,82.7,62.2,89.5z"/>
		<path fill="#FFFFFF" d="M117.8,44.7c-0.3,5.8-2.7,10.9-6.7,14.9c12.3,8.4,16.8,18.1,16.2,33c-0.7,15.9-10.1,29-27.5,28.2
			c-0.8,0-3-0.2-3.8-1.8c-0.4-17.1,0.3-34.1-0.4-54.2l-1-26.5l0.1-2.3C102.2,28,118.4,31.1,117.8,44.7z M101.8,57
			c5.7,0.3,9.7-6,10-12.1c0.3-6.3-4.8-8.8-10.8-6.3L101.8,57z M104.1,114.3c11.8,0.5,16.2-11.4,16.7-22c0.6-12.3-4.4-27.5-18.9-28.2
			c-0.8,16.7-0.3,33.3,0.3,50C102.7,114.3,103.4,114.3,104.1,114.3z"/>
		<path fill="#FFFFFF" d="M140.2,39.9c0.9-2.2,1.4-2.3,3.8-2.2c3.2,0.1,3.2,1.6,3,4.8c0,0.3-0.2,1.8-0.2,2l-6.8,75.7
			c-0.4,4.9-6.7,5-6.5,1.8L140.2,39.9z"/>
		<path fill="#FFFFFF" d="M176.5,36.3c19.7,3.1,14.7,50.2,12.9,64.9c-1.1,8.1-5.9,22-17,21.5c-19.6-0.9-19-34.4-18.4-47.4
			C154.7,61.2,156.9,35.4,176.5,36.3z M160.4,75.1c-1.5,32.5,4.1,41.6,12,42c10.9,0.5,12.3-27.7,12.6-34.7l0-0.4
			c0.4-8.5-0.5-39.7-11.1-40.2c-8.3-0.4-12.7,18-13,23.5C160.7,68.9,160.5,72,160.4,75.1z"/>
		<path fill="#FFFFFF" d="M44.6,167.9l0.8,0c4.4,0.4,9.6,3,9.4,8.4c-0.1,1.1-0.4,2.4-2,2.4c-3.7-0.3-4-4.7-8.1-5.5
			c-0.1,0-0.3-0.1-0.7-0.1c-15.2-0.7-28.8,68.5-3.3,70.7l0.6,0c8,0.4,5.3-10.1,11.7-9.8l0.3,0c1.6,0.1,2.6,1,2.6,2.6
			c-0.2,2-0.8,2-1.9,4.2c-2.8,5.3-6.8,7.9-12.8,7.6l-1,0c-21.4-2-20.8-31.6-18.7-46C22.4,191.8,28.3,167.1,44.6,167.9z"/>
		<path fill="#FFFFFF" d="M75.5,230.6l-0.7,0.6l-2.5,12.4c-0.3,1.7-0.4,6.4-3.6,6.3c-1.4-0.1-2.3-3-2.3-4.1
			c15.2-79.9,15.3-80.1,15.3-80.1c0.7-2.1,1.6-5.2,4.3-5c1.2,0.1,2.7,0.7,3.4,1.8l0.8,2.4c5.3,25.7,7.1,51.9,8.9,78.2l0.3,7.2
			c0,0.1-0.1,0.1-0.1,0.2c-0.9,2.1-1.4,2.9-3.5,2.8l-0.3,0c-0.7,0-1.8-0.1-1.8-0.9L92,231.4L75.5,230.6z M77.5,223.8l13.8,1
			l-5.1-52.1L77.5,223.8z"/>
		<path fill="#FFFFFF" d="M106.5,246.4c1.1-25,3.2-50.1,5-75c0.5-5.1,2.3-5,6.8-4.8l1.1,0.1c10.2,0.5,16.4,7.4,16,17.2l-0.1,1.2
			c-0.4,8.1-2.9,17.4-10.5,22.1c0.5,0.6,2.9,3.7,3.4,4.5c4.7,6.8,2.8,22.6,3,30.2c0,0.7,0.4,5.8,0.4,6.5l0,0.9c-0.1,1.9-1.9,2-3.3,2
			l-0.1,0c-1.2-0.1-2.7-0.1-3-1.7c0.1-3.7-0.2-20.7-0.2-24.5c-0.2-5.5-1-12.9-7.7-13.2l-1.8-0.1c-0.3,1-0.9,5.4-1,6.4
			c-0.2,1-1.8,25.6-2.4,35c-0.1,2.1,0.1,4.5-2.6,4.3c-1.2-0.1-2.5-0.6-3.3-1.7L106.5,246.4z M117.1,203.8c7.9,0.4,11.5-14,11.8-19.1
			c0.2-5.2-1.9-12-8.2-12.3c-1.7-0.1-2.8,0.9-2.9,2.8c-0.3,9.7-1.6,17.7-2,27.6C115.7,203.7,116.4,203.8,117.1,203.8z"/>
		<path fill="#FFFFFF" d="M144.1,213.3c11.7,0.9,23.7,0.4,35.4,0.9l12.3,0.6c2.2,0.1,2.5,1.7,2.4,3.4c-0.1,2.8-4,1.6-5.8,1.5
			l-35.1-1l-8.3,1l-0.3,0c-1.9-0.1-2.7-2-2.6-3.7C142.2,214.8,142.7,213.4,144.1,213.3z"/>
		<path fill="#FFFFFF" d="M13.6,362.8c0.5-9.5,2.6-53.9,2.9-63.3l0-0.4c0.1-2.4,1.1-4.9,3.5-5.8l1,0c4.4,0.2,9,1.4,12.2,4.6
			C44.6,309,46,328.2,44.6,343.2c-1.9,21.4-7.8,41.5-26.2,42.9c-3.6,0.3-5.9-0.4-5.7-4.5L13.6,362.8z M20.9,341.7
			c-0.4,9.9-1.4,26.7-1.7,38c13.8-1.5,18.6-23.3,19.2-35.5c0.4-8.8,1.4-43.1-14-43.8l-0.8,0C23.1,306.7,21.2,335.6,20.9,341.7z"/>
		<path fill="#FFFFFF" d="M57.5,306.3c0.1-2,2.1-3.8,4.1-3.7l17.5,0.8c0.7,0,2.8,1.8,2.9,2.4c0.1,0.2,0.1,0.3,0.1,0.6
			c-0.1,2.2-3.1,3.1-4.9,3l-13.3-0.6l-1.1,36.8l12.1-1.2l0.6,0c5.2,0.2,3,5.2-1.5,5.7l-11.2,1.2l-1.6,28.9c1,0.2,4.8,0.3,5.8,0.4
			c7.4,0.3,13-2,13.1,3.2c0.1,3.8-24.8,2.2-24.7,0.1L57.5,306.3z"/>
		<path fill="#FFFFFF" d="M93.8,387.9c-0.1,0,1.2-57.3,1.5-64.8c0.1-2.1-0.5-19.1-0.5-21.2l0-0.8c0-0.9,0.1-1.2,0.9-2
			c0.3-0.1,1.7-0.1,2.1-0.1c2,0.1,2.9,0,3.4,2.5c0.8,4.4,0.2,7,0.2,11.3c-0.5,22.6-1.3,45.6-1,68.5l0.8,0c4.7,0.2,9.2-1.1,13.9-0.9
			c1.8,0.1,3.8,0.6,3.6,2.8c-0.1,1.2-0.8,2.2-2.3,2.3L93.8,387.9z"/>
		<path fill="#FFFFFF" d="M129,389.5c-0.1,0,1.2-57.3,1.5-64.8c0.1-2.1-0.5-19.1-0.5-21.2l0-0.8c0-0.9,0.1-1.2,0.9-2
			c0.3-0.1,1.7-0.1,2.1-0.1c2,0.1,2.9,0,3.4,2.5c0.8,4.4,0.2,7,0.2,11.3c-0.5,22.6-1.3,45.6-1,68.5l0.8,0c4.7,0.2,9.2-1.1,13.9-0.9
			c1.8,0.1,3.8,0.6,3.6,2.8c-0.1,1.2-0.8,2.2-2.3,2.3L129,389.5z"/>
		<path fill="#FFFFFF" d="M168,307.8c0.9-2.2,1.4-2.3,3.8-2.2c3.2,0.1,3.2,1.6,3,4.8c0,0.3-0.2,1.8-0.2,2l-6.8,75.7
			c-0.4,4.9-6.7,5-6.5,1.8L168,307.8z"/>
	</g>
</g>
</svg>
