<svg id="Layer_1" data-name="Layer 1" xmlns="http://www.w3.org/2000/svg" viewBox="0 0 1400.8 1269.68"><defs><style>.cls-1{fill:#fff;}</style></defs><title>fc bg img</title><path class="cls-1" d="M-613.54,2923.94v68c-5.62.64-10.89-1.43-16.18-2.59-20.85-4.54-40.7-12.32-60.64-19.73-24.63-9.14-49.12-18.47-75.79-20.23a157.69,157.69,0,0,0-52.79,5.76c-21.17,5.86-41.52,14.25-62.1,21.88-16.86,6.25-34,12.14-51.75,14.58a152.06,152.06,0,0,1-63.75-4.62c-16.92-4.95-33.44-11.14-50-17.29-24.91-9.28-49.68-18.86-76.75-20.33a157.27,157.27,0,0,0-51.79,5.77c-23.54,6.67-46.15,16.11-69.14,24.4-14.56,5.25-29.4,10-44.7,12.08a153.49,153.49,0,0,1-63.76-4.61c-19.17-5.6-37.76-12.9-56.51-19.74-22.62-8.26-45.22-16.41-69.74-17.83a161.72,161.72,0,0,0-51.81,5.5c-17,4.59-33.4,11.21-49.94,17.29-25.89,9.52-51.58,19.66-79.78,20.51a160.74,160.74,0,0,1-49.27-6c-25.78-7.35-50.43-18-75.75-26.68-12.92-4.44-26.1-8.09-39.59-9.91-29.77-4-58.22,2.35-86,12.48-25.92,9.45-51.38,20.27-78.35,26.55-7.89,1.84-15.84,4.08-24.14,2.79v-68c15.13,0.92,29.25-3.82,43.39-8.07,22.94-6.9,44.95-16.51,67.67-24.06,13.11-4.35,26.44-8,40.13-9.88,28.66-3.88,55.9,2.72,82.65,12,25.73,9,50.8,19.77,77.34,26.5a152.47,152.47,0,0,0,58.34,2.94c15.14-2,29.76-7,44.18-12.1,25.83-9.18,51.13-19.85,77.91-26.32a140.81,140.81,0,0,1,54.52-2.67c21.95,3.32,42.7,11.21,63.48,18.8,28.05,10.24,55.65,21.91,86.19,23.56a150.15,150.15,0,0,0,30.27-1.41c17.9-2.68,35.09-8.75,52.15-14.92,25.92-9.38,51.35-20.21,78.72-25.23,22.79-4.17,45.12-2.23,67.14,3.93,28.37,7.94,55.44,19.76,83.39,29,17,5.63,34.56,9.07,52.34,9.12a156.77,156.77,0,0,0,52.32-9.2c22.59-7.92,45.07-16.16,67.67-24.09a202.09,202.09,0,0,1,39.59-9.88c26.32-3.58,51.68,1.43,76.54,9.8,22.7,7.64,44.74,17.13,67.66,24.1C-638,2919.49-626.11,2923.25-613.54,2923.94Z" transform="translate(2014.21 -1838.94)"/><path class="cls-1" d="M-2013.54,2297.94q0-34,0-68a71.29,71.29,0,0,1,8.33-1.63c18.64-1.46,36-7.92,53.4-13.92,25.44-8.75,50.21-19.37,76.64-25.36,23.2-5.26,45.87-4.15,68.6,1.55,19.72,4.94,38.61,12.39,57.62,19.44,21.68,8,43.39,15.59,66.57,18.7,19,2.55,37.19,0,55.33-4.39,21.86-5.32,42.65-14,63.68-21.82a336.24,336.24,0,0,1,51.14-15c23.79-4.79,47.12-1.51,70,5.12,26,7.55,50.93,18.55,76.68,27,17.3,5.69,35,9.58,53.19,10.21,17.13,0.6,33.81-3,50.1-7.72,18.52-5.4,36.41-12.73,54.54-19.32,20-7.27,40.13-13.57,61.45-16.49,21.16-2.9,41.2,1.19,61,6.63,26,7.13,50.62,18.4,76.23,26.8,16.36,5.37,33.08,9.06,50.23,10,18,1,35.5-2.66,52.62-7.62,18.53-5.37,36.46-12.59,54.51-19.41a337.14,337.14,0,0,1,51.11-15.14c24.09-5,47.78-1.73,71,5.06,26,7.62,50.91,18.63,76.72,26.93,12.78,4.11,25.57,8.65,39.33,8.3v68a30.74,30.74,0,0,1-9.46-.29,379.47,379.47,0,0,1-44.06-12.72c-25.53-9-50.49-19.5-77-25.73-24.06-5.65-47.57-4.29-71.08,1.75-17.25,4.43-33.83,11-50.55,17.06-24.34,8.88-48.52,18-74.64,21.11-13.4,1.61-26.31.1-39.21-1.77-14.64-2.12-28.71-7.12-42.66-12-26.15-9.24-51.65-20.43-79-26.19-12.42-2.62-24.9-4.68-37.65-3.66-19,1.53-37.38,6.24-55.36,12.42-25.78,8.85-50.81,19.89-77.32,26.56-15,3.78-30.29,6.64-45.87,5.34-19-1.59-37.3-6.26-55.29-12.49-28.25-9.78-55.68-22.11-85.12-28.28-12.88-2.7-25.86-4.66-39.15-3.39-21.38,2-41.73,8.07-61.82,15.24-22.54,8-44.69,17.15-67.88,23.35-21.37,5.71-42.94,7.56-64.67,3.45-17.16-3.25-33.73-8.87-50.18-14.79-23.43-8.44-46.5-17.79-70.92-23.55-23.9-5.63-47.25-4.52-70.6,1.4-19.69,5-38.57,12.53-57.59,19.57-16.85,6.24-33.79,12-51.34,16.12C-1999.12,2296.07-2006.62,2295.16-2013.54,2297.94Z" transform="translate(2014.21 -1838.94)"/><path class="cls-1" d="M-613.54,2343.94v69a192,192,0,0,1-29.23-6.22c-22.88-6.55-44.86-15.75-67.26-23.74-15.54-5.54-31.32-10.63-47.67-12.54a150.09,150.09,0,0,0-60.78,5.21c-20.89,6.23-41.27,13.93-61.62,21.7-17,6.48-34.29,12.06-52.22,14.71a138.48,138.48,0,0,1-50-1.46c-18.29-4-35.86-9.92-53.31-16.44-21.8-8.16-43.5-16.73-66.34-21.61-24.74-5.29-49.24-3.56-73.51,3.4-25.3,7.25-49.53,17.52-74.37,26.09-13.55,4.68-27.33,8.75-41.5,10.41a146.16,146.16,0,0,1-47.58-1.88c-17.85-3.77-34.87-9.73-51.85-16-22.3-8.27-44.46-17.06-67.77-22.07-24.2-5.2-48.27-3.54-72.07,3.13-21,5.89-41.25,14-61.65,21.59-17.49,6.51-35.26,12.27-53.67,15.13-21.81,3.39-43.51.85-64.64-5.19-25.76-7.37-50.34-18.22-75.74-26.7-13.45-4.49-27.07-8.56-41.1-10.11-22.58-2.5-44.82.36-66.52,7.23-25.53,8.08-50.1,18.92-75.71,26.75-14.31,4.38-28.68,8.59-43.85,8.64v-68c12.41-.2,24.5-2.69,36.28-6.15,25.87-7.59,50.63-18.41,76.21-26.85,15.83-5.22,31.92-9.19,48.67-10.24,27.78-1.73,53.61,6.21,79.28,15.28,25.83,9.13,51,20.16,78.1,25.63a141.75,141.75,0,0,0,53.45,1c17.37-3.1,34.07-8.79,50.64-14.83,23.1-8.43,45.85-17.78,69.94-23.42,27.95-6.54,55.15-4,82.19,4.3,25,7.63,48.92,18.24,73.88,26,23.31,7.22,46.75,13,71.44,8.71,1-.17,2-0.16,3-0.25a136,136,0,0,0,26.28-5.48c25.85-7.63,50.62-18.42,76.2-26.84,14.39-4.74,29.05-8.55,44.21-9.85,26.1-2.23,50.9,3.73,75.27,12.28,26,9.13,51.4,20.16,78.26,26.85,12.15,3,24.67,5.31,37,5a166.61,166.61,0,0,0,44.22-7c23.57-7.14,46.35-16.53,69.56-24.7,16.35-5.75,33-10.61,50.28-12.29,23.93-2.33,47.06,2.1,69.69,9.68,22.87,7.66,45.09,17.16,68.15,24.26C-639,2339.79-626.73,2344-613.54,2343.94Z" transform="translate(2014.21 -1838.94)"/><path class="cls-1" d="M-2013.54,2065.94v-69c11.54,1.16,22.53-2.18,33.36-5,17.19-4.55,33.83-11,50.44-17.37,20.66-8,41.48-15.76,63.4-19.08a148.58,148.58,0,0,1,64.23,4.37c21.4,6.25,42.22,14.25,63.05,22.14,16.82,6.37,33.95,12,51.73,14.6a152.67,152.67,0,0,0,63.76-4.62c19.21-5.45,37.75-12.94,56.5-19.76,23.27-8.46,46.47-16.91,71.74-17.92a159,159,0,0,1,50.27,5.83c21.12,6,41.58,14.07,62.11,21.85,16.82,6.36,33.95,12.08,51.72,14.6a152.08,152.08,0,0,0,63.76-4.57c19.19-5.52,37.81-12.76,56.47-19.81,18.84-7.12,37.89-14,57.83-16.85a151,151,0,0,1,63.75,4.55c23.34,6.78,45.87,15.92,68.67,24.25,15.18,5.54,30.64,10.45,46.61,12.54,24.9,3.25,49.31,0,73.26-7.87,24.65-8.13,48.56-18.28,73.34-26,17.24-5.41,34.77-8.91,52.87-8.85,19.67,0.06,38.53,4.69,57.07,10.85,22.73,7.55,44.74,17.14,67.66,24.17,11.91,3.66,23.9,7,36.38,8.05v68c-14.66-1.41-28.67-5.57-42.58-10.1-24.82-8.07-48.8-18.54-73.86-26a161.55,161.55,0,0,0-45.65-7.15,153.48,153.48,0,0,0-44.23,6.64c-23.29,7-45.76,16.23-68.68,24.24-15.41,5.39-31,10.19-47.21,12.34-26.33,3.49-51.62-1.64-76.49-10-22.54-7.59-44.52-16.73-67.17-24-17.07-5.49-34.55-9.09-52.33-9.18a156.7,156.7,0,0,0-52.33,9.14c-22.77,7.93-45.42,16.22-68.17,24.21a200.21,200.21,0,0,1-40.11,9.91c-28.49,3.75-55.57-2.72-82.19-12-25.58-8.94-50.56-19.51-76.89-26.36a151.08,151.08,0,0,0-58.81-3.13c-15.43,2.09-30.4,7.07-45.15,12.31-25.67,9.13-50.78,19.76-77.43,26.15-25.81,6.19-51.17,4.85-76.42-2.26-25.81-7.27-50.48-17.83-75.81-26.51-12.44-4.26-25.1-8.2-38.09-9.83-16.64-2.08-33.39-2.11-50,1.5a355.15,355.15,0,0,0-45.35,13.52c-14.08,5.09-28,10.58-42.16,15.45C-1977.86,2059.69-1995.36,2064.33-2013.54,2065.94Z" transform="translate(2014.21 -1838.94)"/><path class="cls-1" d="M-613.54,2460.94v68a180.38,180.38,0,0,1-34.44-8c-22.87-7.64-45.54-15.87-68.17-24.19a187.54,187.54,0,0,0-38.52-10.08,153.06,153.06,0,0,0-66.1,5.39c-25.32,7.69-49.76,17.89-74.79,26.42-12.79,4.36-25.8,8.36-39.07,10a152.38,152.38,0,0,1-61.77-5c-20.91-6.19-41.18-14.23-61.69-21.59-21.75-7.8-43.51-15.14-67-16.22-17.89-.82-35.13,1.78-52.11,6.61-25.45,7.24-49.76,17.82-74.81,26.28-12.64,4.27-25.48,8.22-38.58,9.83a151.67,151.67,0,0,1-62.72-5.16c-18.64-5.62-36.8-12.61-55.09-19.26-24-8.74-48-17.42-74.14-18.4a160.62,160.62,0,0,0-50.15,6.45c-25.61,7.26-50.09,17.92-75.29,26.47-12.79,4.34-25.8,8.34-39.08,9.95a152.16,152.16,0,0,1-62.71-5.24c-18.8-5.68-37.13-12.74-55.58-19.43-24.06-8.72-48-17.41-74.17-18.24a159.79,159.79,0,0,0-49.66,6.55c-27.81,8-54.26,20.16-82,28.53-13.79,4.17-27.61,8.84-42.38,8.33v-68c12.87,0.54,25-3.29,37.15-6.66,25-7,48.77-17.59,73.39-25.77,12.82-4.26,25.8-8.44,39.06-10a152.56,152.56,0,0,1,62.26,5c21.22,6.34,41.89,14.21,62.58,22,17,6.41,34.32,12.17,52.19,14.72a151.24,151.24,0,0,0,66.08-5.56c25.3-7.74,49.75-17.87,74.76-26.42,12.78-4.37,25.83-8.26,39.1-9.85a151.47,151.47,0,0,1,61.28,5c21.07,6.22,41.48,14.37,62.14,21.77,21.75,7.78,43.5,15.16,67.05,16.07a161,161,0,0,0,50.7-6.22c25.76-7.34,50.4-18,75.74-26.66,12.79-4.36,25.82-8.28,39.1-9.89a152.52,152.52,0,0,1,61.75,5c19,5.57,37.44,12.81,56.06,19.52,24.08,8.68,48,17.48,74.15,18.32a161.66,161.66,0,0,0,49.65-6.43c25.61-7.26,50.08-17.92,75.28-26.46,12.64-4.28,25.49-8.28,38.59-9.9a155.48,155.48,0,0,1,64.17,5.44c25.2,7.55,49.48,17.67,74.34,26.16A282,282,0,0,0-613.54,2460.94Z" transform="translate(2014.21 -1838.94)"/><path class="cls-1" d="M-2013.54,2644.94v-68c3.33-.14,6.72.09,10-0.5a315.88,315.88,0,0,0,46.67-12.53c25.43-8.82,50.12-19.75,76.42-26.1a152,152,0,0,1,37-4.73c20.28,0.18,39.79,5.22,59,11.62,28.37,9.47,55.73,21.83,85,28.81a147.51,147.51,0,0,0,52.54,2.65c18.35-2.24,35.87-8.46,53.28-14.65,23-8.19,45.49-17.9,69.34-23.71a151.24,151.24,0,0,1,37-4.72c20.45,0.16,40.13,5.23,59.42,11.8,22.67,7.72,44.73,17.18,67.67,24.1,16.93,5.1,34.1,8.66,52,8.46,22.18-.26,43-6.44,63.65-13.46,25.65-8.71,50.49-19.72,76.92-26.22a148,148,0,0,1,37-4.65c20.42,0.23,40.11,5.19,59.39,11.85,28,9.65,55.14,21.5,84.06,28.48a147.89,147.89,0,0,0,53,2.72c15.82-1.93,31.1-6.95,46.19-12.26,25.39-8.94,50.16-19.64,76.42-26.11a158,158,0,0,1,36.52-4.72c14.66-.12,29.19,2.53,43.26,6.57,19,5.46,37.49,12.66,56,19.68,20.25,7.68,40.86,14.1,62.29,17.61v68a49.11,49.11,0,0,0-4.85-1.18c-20.24-2.88-39.24-10-58.36-16.81-23.16-8.23-45.84-17.81-70.16-22.68a142.07,142.07,0,0,0-54-.87c-19.67,3.6-38.45,10.44-57.18,17.36-20.73,7.66-41.27,15.79-62.94,20.8-24.47,5.65-48.61,4.72-72.61-1.58-17.38-4.56-34.16-11.08-51-17.3-25.42-9.38-50.78-18.6-78.18-21.29-11.76-1.15-23,.6-34.18,2.18-17.44,2.47-34.07,8.73-50.66,14.73-23.12,8.36-45.87,17.69-70,23.29-27.67,6.42-54.55,3.93-81.25-4.17-23.1-7-45.33-16.46-68.16-24.24-12.6-4.29-25.35-8.2-38.51-10.11-13.64-2-27.29-3-41.18-.53-9,1.58-18.08,3.07-26.78,5.64-25.69,7.59-50.38,18.13-75.77,26.65-14.54,4.88-29.36,8.74-44.66,10.11-23.8,2.13-46.68-2.56-69.16-10-31.22-10.32-61.11-24.74-93.71-30.78-9.46-1.75-19.19-3.93-28.65-3.4a215.67,215.67,0,0,0-60.37,12.41c-22.4,8-44.38,17.16-67.19,24C-1986.24,2641.11-1999.62,2644.46-2013.54,2644.94Z" transform="translate(2014.21 -1838.94)"/><path class="cls-1" d="M-613.54,2691.94v68c-10.31.05-20.11-3-29.79-5.75-25.91-7.41-50.67-18.25-76.23-26.77-17.78-5.93-35.92-10.19-54.67-10.39-27.08-.29-52.4,8.13-77.49,17.21-23.42,8.47-46.46,17.85-70.92,23.49-23.39,5.39-46.18,4.26-69.06-1.48-19.88-5-38.89-12.57-58.08-19.63-21.52-7.92-43.06-15.38-66.09-18.43-18.82-2.5-36.87-.11-54.82,4.23-22,5.33-43,14.06-64.14,22A347.93,347.93,0,0,1-1285,2759.2c-24.29,5.11-48.11,1.62-71.46-5.1-25.74-7.41-50.29-18.35-75.74-26.7-17.48-5.74-35.26-10-53.66-10.36-25.16-.46-48.93,6.66-72.34,15-25.49,9.12-50.43,19.75-77.06,25.65-18.69,4.14-37.26,5-55.93,1.46-19.81-3.77-38.76-10.54-57.64-17.53-26.16-9.7-52-20.09-80.17-23.62-14.54-1.82-28.69-.81-42.69,1.74-23.81,4.33-46.18,13.65-68.79,22.06-23.7,8.82-47.51,17.32-73.07,19.09v-68a136.66,136.66,0,0,0,29.51-4.75c21.92-5.67,42.91-14.21,64.1-22.09,16.68-6.2,33.62-11.82,51.15-15a139.84,139.84,0,0,1,55.44,1.53c21.87,4.84,42.65,12.85,63.52,20.58,18.73,6.94,37.54,13.46,57.1,17.67,25.14,5.41,49.72,1.94,73.92-5.2,25.53-7.54,49.9-18.46,75.32-26.36,23.27-7.23,46.58-12.58,71.51-9.09,20.32,2.85,39.52,8.93,58.62,15.66,23.5,8.28,46.56,17.67,70.91,23.56,24,5.8,47.56,4.75,71.09-1.36,17.55-4.56,34.49-11.05,51.51-17.28,24-8.78,47.9-17.72,73.67-20.93,13.57-1.69,26.67-.51,39.7,1.54,15.08,2.37,29.64,7.4,44.08,12.51,25.52,9,50.37,20,77.07,25.57,12.44,2.58,24.88,4.87,37.6,4,19.7-1.42,38.66-6.42,57.27-12.88,25.59-8.88,50.5-19.78,76.86-26.36,14.39-3.59,29-6.28,43.91-5.22a185.43,185.43,0,0,1,47.3,9.47c22.94,7.91,45.68,16.42,68.61,24.36C-640.74,2687.38-627.45,2691.13-613.54,2691.94Z" transform="translate(2014.21 -1838.94)"/><path class="cls-1" d="M-2013.54,2875.94q0-33.5,0-67a43.26,43.26,0,0,1,6.41-1c11.33,0,22-3.65,32.63-6.65,25-7,48.65-17.94,73.4-25.74,16.55-5.22,33.2-9.7,50.6-10.67,26.37-1.46,51,6.27,75.41,14.78,23.68,8.27,46.79,18.11,71.13,24.52a154.12,154.12,0,0,0,36.92,5.27c10.49,0.15,21.13-1.48,31.6-3.75,19.92-4.32,38.84-11.55,57.85-18.62,20.57-7.64,41.18-15.15,62.72-19.74,25.5-5.43,50.54-2.32,74.89,5.43,25.49,8.11,50.49,17.75,75.73,26.64a156.07,156.07,0,0,0,32.85,8.1c12.29,1.5,24.57,2.68,37.21.73a246.36,246.36,0,0,0,30.66-6.41c25.73-7.42,50.28-18.33,75.73-26.63,16.65-5.44,33.59-9.58,51.19-10.35,23.93-1,46.41,5.58,68.7,13.08,25.35,8.53,49.88,19.42,75.87,26.13,13.12,3.39,26.52,5.6,39.91,5.42,14.91-.2,29.77-3,44.14-7.33,18.8-5.61,37.09-12.76,55.46-19.63a357.1,357.1,0,0,1,51-15.29c24.82-5.26,49.08-1.8,73,5.16,25.87,7.55,50.5,18.72,76.2,26.78,12.67,4,25.35,8.07,38.79,8.73v68c-2.49-.11-5.07.16-7.46-0.4a413.63,413.63,0,0,1-44.57-12.7c-25.36-9-50.21-19.38-76.51-25.79-25.35-6.17-50.21-5-75,1.8-28.6,7.81-55.71,20-83.91,29-10.77,3.44-21.69,6.76-32.91,7.83s-22.31,2-33.75.69a209.34,209.34,0,0,1-32.16-6.53c-25.49-7.1-49.72-17.92-74.83-26.18-16-5.26-32.23-9.44-49.11-10.6-25.49-1.75-49.5,5-73.19,13.13-25.29,8.72-49.93,19.25-75.94,26a146.87,146.87,0,0,1-60.23,3.15c-15.58-2.43-30.64-7.52-45.57-12.74-25.09-8.78-49.57-19.15-75.55-25.52-25.73-6.31-50.87-4.93-76,1.87-28.28,7.66-55,20-82.91,28.75-10.8,3.39-21.71,6.77-32.9,7.92-11,1.12-21.95,2.09-33.25.81a213.51,213.51,0,0,1-33.6-6.8c-25.17-7-49.08-17.78-73.93-25.83-16.18-5.24-32.52-9.63-49.6-10.76-25.5-1.69-49.48,5.11-73.18,13.2-25.47,8.7-50.15,19.71-76.44,26.05C-1995.07,2874.53-2004.06,2877-2013.54,2875.94Z" transform="translate(2014.21 -1838.94)"/><path class="cls-1" d="M-2013.54,2181.94v-68c21.73-2,42.33-8.46,62.73-15.71,18.65-6.62,37.08-13.9,55.93-19.9a195.06,195.06,0,0,1,39.92-8.11,129.74,129.74,0,0,1,34.19,1.46c22.16,3.65,43.28,11.59,64.26,19.63,20.34,7.79,40.79,15.17,62.15,19.84,26.17,5.72,51.83,2.73,76.85-5.23,25.65-8.17,50.82-17.86,76.26-26.71,10.84-3.77,22-7,33.36-8.06,11-1.07,22-2,33.25-.72a208.09,208.09,0,0,1,32.17,6.45c25.49,7.09,49.72,17.92,74.84,26.17,16,5.25,32.18,9.54,49.07,10.73,25.66,1.8,49.81-5,73.65-13.18,25.13-8.65,49.6-19.14,75.44-25.87a147.76,147.76,0,0,1,60.21-3.31c15.58,2.39,30.67,7.44,45.59,12.66,25.24,8.84,49.87,19.29,76,25.69,25.54,6.25,50.54,5,75.48-1.76,28.28-7.64,55-19.91,82.91-28.73,11-3.46,22-6.9,33.36-8.08,11-1.13,21.95-2.05,33.24-.8a210.5,210.5,0,0,1,34.09,6.91c25,7.05,48.75,17.69,73.44,25.68,13.64,4.41,27.37,8.27,41.64,9.95v68a183.52,183.52,0,0,1-32.17-6.86c-25.23-7.39-49.24-18.27-74.34-26.07-22.82-7.09-45.57-12.39-70-9.44-18.55,2.24-36.13,7.34-53.53,13.36-25.74,8.9-50.87,19.38-77.46,26-27.73,6.95-54.67,4.37-81.17-4-25.67-8.09-50.79-17.88-76.21-26.78a150.36,150.36,0,0,0-31.9-7.87c-12.3-1.45-24.56-2.74-37.23-.78a246.88,246.88,0,0,0-30.68,6.34c-25.57,7.37-50,18.22-75.27,26.45-20.36,6.63-41,11.73-62.62,10.59-20-1-39-6.44-57.75-12.93-25.43-8.81-50.19-19.55-76.34-26.32-12.8-3.31-25.86-5.44-38.9-5.36-15.26.1-30.45,3-45.14,7.39-25.66,7.66-50.25,18.44-75.72,26.68-16.51,5.34-33.2,9.7-50.63,10.55-24.26,1.19-47.1-5.4-69.71-13.06-25.33-8.58-49.87-19.41-75.88-26.1-13-3.34-26.2-5.53-39.4-5.45-15.26.09-30.44,3-45.13,7.43-25.5,7.62-49.92,18.34-75.24,26.52A240.62,240.62,0,0,1-2013.54,2181.94Z" transform="translate(2014.21 -1838.94)"/><path class="cls-1" d="M-613.54,3039.94c0,21-.15,42,0.12,63,0.05,4.24-.89,5.88-5.13,5a10.21,10.21,0,0,0-2,0c-1.45-1.28-3.26-1.52-5.08-1.87A261.17,261.17,0,0,1-663,3095.47c-20.22-7.14-40.22-14.92-60.57-21.65a204.35,204.35,0,0,0-42.83-8.75c-11.54-1.23-22.76,0-33.67,1.82-22,3.61-42.93,11.6-63.75,19.58-15.36,5.89-30.83,11.47-46.68,16-6.67,1.91-13.82,2.08-20.08,5.46h-46a9.29,9.29,0,0,0-4.11-1.69c-17.52-3.35-34.29-9.19-51-15.19-30.12-10.8-59.53-23.79-92.22-26.06a138.57,138.57,0,0,0-32.18,1.86c-22.17,3.65-43.23,11.72-64.22,19.7-15.53,5.91-31.12,11.66-47.16,16.13-6.35,1.77-13.17,1.87-19.07,5.24h-47a6.13,6.13,0,0,0-3.52-1.7c-17.67-3.47-34.61-9.32-51.49-15.48-30.39-11.09-60.28-23.85-93.26-26-10.45-.68-20.73.45-30.7,2.12-21.67,3.63-42.31,11.41-62.82,19.23-15.84,6-31.77,11.79-48.08,16.49-6.68,1.92-13.78,2.2-20.13,5.34h-46a8.23,8.23,0,0,0-4.08-1.73c-19.34-3.72-37.75-10.48-56.17-17.2-27.9-10.19-55.35-21.53-85.6-23.93-11.35-.9-22.4.09-33.17,1.75-19.7,3-38.51,10.07-57.2,17.09-17.89,6.72-35.74,13.55-54.15,18.79-6.52,1.86-13.49,2-19.63,5.22-4.67,0-11.15,1.82-13.49-.51s-0.51-8.82-.51-13.49v-53c19.37-1.64,37.92-6.88,56.15-13.23,25.27-8.79,49.89-19.31,75.91-26.06a150,150,0,0,1,59.74-3.21c15.25,2.21,30,7.23,44.63,12.35,25.71,9,50.71,20,77.42,26.2,17.64,4.08,35.31,5.26,53,2.65,20.46-3,39.94-9.9,59.34-17,30.06-11,59.55-23.91,92.32-25.62a145.87,145.87,0,0,1,30.22,1.67c13.38,2.1,26.46,6.17,39.38,10.64,21.69,7.5,42.86,16.45,64.84,23.09,13.22,4,26.6,7.24,40.46,8.29,26.35,2,51.17-4.62,75.62-13.23,20.07-7.07,39.75-15.26,60.09-21.57,10.79-3.35,21.67-6.88,32.9-7.81,10.34-.85,20.7-1.66,31.29-0.77a181.77,181.77,0,0,1,33.19,6.37c28.09,7.73,54.64,20,82.45,28.63a191.22,191.22,0,0,0,39.45,8.29c26.67,2.39,51.88-4.3,76.67-13,25.26-8.82,49.9-19.33,75.9-26.13a150.48,150.48,0,0,1,36.93-4.9c14.86-.11,29.74,2.47,44.19,6.69,28.12,8.22,54.91,20.24,82.86,29A209.31,209.31,0,0,0-613.54,3039.94Z" transform="translate(2014.21 -1838.94)"/><path class="cls-1" d="M-613.54,1880.94v68c-10,.11-19.36-3.06-28.73-5.67-28.22-7.86-54.9-20.27-82.9-28.82-13.36-4.08-26.93-7.27-41-8.3-25.83-1.91-50.2,4.56-74.2,12.85-25.6,8.84-50.5,19.58-76.85,26.39a154.42,154.42,0,0,1-36.94,4.86c-14.84.16-29.73-2.44-44.16-6.75-28.07-8.37-54.87-20.4-82.86-29-13.35-4.08-26.91-7.36-40.94-8.4-26.35-1.94-51.16,4.67-75.59,13.31-20.06,7.1-39.76,15.25-60.1,21.56-10.63,3.3-21.37,6.78-32.41,7.72-10.33.88-20.69,1.77-31.28,0.82-11.72-1.05-23-3.6-34.13-6.63-25.4-6.89-49.49-17.62-74.37-26-13.91-4.71-28.07-8.55-42.57-10.29-22.13-2.66-43.84.83-65,7.37-25.75,7.94-50.44,18.91-76.18,26.92-10.95,3.41-22,6.95-33.37,7.93-10.35.89-20.72,1.57-31.29,0.69-11.42-.94-22.33-3.53-33.16-6.47-25.39-6.91-49.47-17.67-74.37-26-15-5.05-30.3-9.12-46.05-10.63-24.3-2.33-47.64,2.76-70.54,10.45-22.7,7.62-44.67,17.33-67.65,24.12-14.13,4.18-28.19,9.25-43.36,8v-68c5.14,0,10.35.46,15.4-.63,21.77-4.68,42.76-11.9,63.53-19.82,15.49-5.91,31.07-11.56,47-16.12,6.66-1.9,13.78-2.07,20-5.43h46a8.71,8.71,0,0,0,4.1,1.69c13,2.32,25.47,6.26,37.87,10.54,25.6,8.83,50.57,19.43,76.85,26.35a143.42,143.42,0,0,0,37,4.82,152.07,152.07,0,0,0,44.64-7c18.89-5.9,37.41-12.87,56-19.74,14-5.19,28-10.4,42.8-13.29,3.61-.71,7.67-0.79,10.82-3.35h47c1.07,1.21,2.52,1.49,4,1.79,17.33,3.48,34,9.14,50.53,15.26,17.15,6.34,34.17,13.08,51.76,18.19a239.51,239.51,0,0,0,39.51,7.63c11.21,1.3,22.1-.09,32.69-1.79,22-3.53,42.95-11.55,63.78-19.49,15.54-5.91,31.16-11.56,47.15-16.19,6.5-1.88,13.5-1.93,19.55-5.4h47a6.85,6.85,0,0,0,4,1.77c17.51,3.44,34.25,9.35,51,15.36,29.8,10.7,58.94,23.45,91.28,25.79a140.6,140.6,0,0,0,33.17-1.91c21.84-3.61,42.55-11.74,63.26-19.53,15.55-5.85,31.14-11.57,47.14-16.13,6.68-1.91,13.79-2.17,20.12-5.34h46c1.3,1.15,2.92,1.44,4.56,1.81,6.78,1.55,13.72,2.65,20.27,4.9,25.56,8.76,50.93,18.07,76.5,26.81C-639,1876.62-626.59,1880.31-613.54,1880.94Z" transform="translate(2014.21 -1838.94)"/></svg>