<?xml version="1.0" encoding="utf-8"?>
<!-- Generator: Adobe Illustrator 19.0.0, SVG Export Plug-In . SVG Version: 6.00 Build 0)  -->
<svg version="1.1" xmlns="http://www.w3.org/2000/svg" xmlns:xlink="http://www.w3.org/1999/xlink" x="0px" y="0px"
	 viewBox="0 0 841.9 595.3" enable-background="new 0 0 841.9 595.3" xml:space="preserve">
<g id="Layer_1_copy_2">
	<path fill="#FFFFFF" d="M428.3,191.6c-25.4,16.2-48,49.3-64.3,94.1c-21.4,58.8-47.1,130.7-81.8,134.1c0,0,21.4-0.1,47.6-11.4
		c12.5-17.6,23.3-37.1,32.5-53.2c24.9-43.8,77-166.8,138-123.4l0,0C500.3,231.8,473.1,197.7,428.3,191.6z"/>
	<path opacity="0.1" fill="#231F20" d="M428.3,191.6c-25.4,16.2-48,49.3-64.3,94.1c-21.4,58.8-60.2,175.8-113.1,119.1
		c0,0,29.2,51.4,70.4,14.9c12.5-17.6,31.8-48.4,41-64.5c24.9-43.8,77-166.8,138-123.4l0,0C500.3,231.8,473.1,197.7,428.3,191.6z"/>
	<path fill="#FFFFFF" d="M587.3,191.6c-25.4,16.1-48.2,49.2-64.6,93.9c-21.5,58.8-47.5,130.6-82.2,133.9c0,0,21.4,0,47.7-11.3
		c12.5-17.5,23.4-37,32.7-53.1c25.1-43.8,77.5-166.6,138.4-123l0,0C659.3,232,632.1,197.8,587.3,191.6z"/>
	<path opacity="0.1" fill="#231F20" d="M587.3,191.6c-25.4,16.1-48.2,49.2-64.6,93.9c-21.5,58.8-60.7,175.6-113.5,118.8
		c0,0,29.1,51.5,70.4,15.1c12.5-17.5,32-48.3,41.2-64.4c25.1-43.8,77.5-166.6,138.4-123l14.6,13.6
		C673.8,245.6,650,191.6,587.3,191.6z"/>
	<path fill="#FFFFFF" d="M229.5,375.1c-28.3-48.7-51.3-180.4-92.9-179.8c-41.6,0.6-36,53.2,47,193.2
		C245,492.1,293.9,458,329.5,408.1c-26.3,11.2-47.7,11.3-47.7,11.3C266.3,420.9,248.9,408.6,229.5,375.1z"/>
	<path fill="#FFFFFF" d="M388.2,375.1c-28.3-48.7-51.3-180.4-92.9-179.8c-41.6,0.6-36,53.2,47,193.2
		c61.4,103.6,110.3,69.5,145.9,19.6c-26.3,11.2-47.7,11.3-47.7,11.3C425,420.9,407.6,408.6,388.2,375.1z"/>
	<path fill="#FFFFFF" d="M715.6,267.1c-39.9-83.5-87.6-101.3-128.3-75.5c44.8,6.2,71.9,40.4,71.9,40.4l0,0
		c9.2,6.6,18.7,17.1,28.3,32.2c56.2,89.2,32.1,199.1,78.7,189.8C812.7,444.8,778,397.6,715.6,267.1z"/>
	<path fill="#FFFFFF" d="M428.3,191.6c44.8,6.1,72.1,40.2,72.1,40.2l0,0c4.8,3.4,9.7,7.9,14.6,13.5c4.5,5.2,9.1,11.3,13.8,18.6
		c56.5,89,32.7,199,79.2,189.6c46.5-9.3,11.7-56.5-51.1-186.8C516.6,183.4,468.9,165.8,428.3,191.6z"/>
	<path fill="#FFFFFF" d="M428.3,191.6c44.8,6.1,72.1,40.2,72.1,40.2l0,0c4.8,3.4,9.7,7.9,14.6,13.5c0,0,0,0,0,0
		S490.9,191.4,428.3,191.6z"/>
	<path opacity="0.1" fill="#231F20" d="M428.3,191.6c44.8,6.1,72.1,40.2,72.1,40.2l0,0c4.8,3.4,9.7,7.9,14.6,13.5c0,0,0,0,0,0
		S490.9,191.4,428.3,191.6z"/>
</g>
<g id="Layer_1_copy_3" display="none">
	<path display="inline" fill="#00AEEF" d="M-347-219.1c0.6,2.7,1.1,5.4,1.7,8.1c0.6,2.7,1.1,5.3,1.7,8c0.3-1.8,0.7-3.5,1-5.1
		c0.3-1.6,0.7-3.1,1-4.4c0.3-1.3,0.7-2.4,1-3.2c0.3-0.9,0.6-1.4,0.9-1.6c0.9-0.6,1.8-1,2.6-1c0.9,0,1.7,0.4,2.3,1.2
		c0.6,0.8,1.1,1.8,1.5,2.9c0.4,1.1,0.6,2.3,0.8,3.6c0.2,1.2,0.3,2.3,0.3,3.2c0,0.2,0.1,0.4,0.1,0.6s0,0.4,0.1,0.6l0.6,3.8
		c0.6-2.8,1.3-5.7,1.8-8.5c0.6-2.8,1.2-5.7,1.7-8.6c0.2-1.1,0.7-1.9,1.7-2.5c0.9-0.6,1.9-0.8,3-0.6c1.1,0.2,1.9,0.8,2.5,1.7
		c0.6,0.9,0.8,1.9,0.6,3c-0.6,2.8-1.1,5.7-1.7,8.4c-0.6,2.8-1.2,5.6-1.8,8.3c-0.6,2.7-1.2,5.4-1.8,8.1c-0.6,2.7-1.1,5.4-1.7,8.1
		l0.1-0.3c0,0.1,0,0.2-0.1,0.3c-0.1,0.2-0.1,0.4-0.1,0.6l0.1-0.1c-0.1,0.5-0.2,1.3-0.4,2.2c-0.2,0.9-0.4,1.8-0.8,2.7
		c-0.3,0.9-0.8,1.6-1.4,2.3c-0.6,0.6-1.3,1-2.2,1c-0.9,0-1.8-0.4-2.6-1.1v0.1c-0.5-0.4-1-1.5-1.3-3.2c-0.3-1.1-0.5-2.4-0.8-3.9
		c-0.3-1.5-0.6-3.2-0.9-5c-0.2,1.1-0.4,2.4-0.7,3.7c-0.3,1.3-0.6,2.6-1.1,3.7c-0.4,1.1-1,2-1.6,2.8c-0.6,0.7-1.4,1.1-2.3,1.1
		c-0.8,0-1.6-0.3-2.3-1c-0.3-0.4-0.7-1.2-1.1-2.6c-0.4-1.3-0.9-2.9-1.3-4.9c-0.5-1.9-1-4-1.5-6.3c-0.5-2.3-1-4.6-1.5-7
		c-0.5-2.4-1-4.6-1.5-6.8c-0.5-2.2-0.9-4.2-1.2-5.9l-0.9-4.6c-0.2-1.1-0.1-2.1,0.5-3c0.6-0.9,1.4-1.5,2.4-1.8
		c0.5-0.2,1.1-0.2,1.6-0.1c0.5,0.1,1,0.3,1.4,0.6c0.4,0.3,0.8,0.6,1.1,1.1C-347.3-220.2-347.1-219.7-347-219.1z"/>
	<path display="inline" fill="#008FD5" d="M-308.8-180.2c-0.6-2.7-1.1-5.4-1.7-8.1c-0.6-2.7-1.1-5.3-1.7-8c-0.3,1.8-0.7,3.5-1,5.1
		c-0.3,1.6-0.7,3.1-1,4.4c-0.3,1.3-0.7,2.4-1,3.2c-0.3,0.9-0.6,1.4-0.9,1.6c-0.9,0.6-1.8,1-2.6,1c-0.9,0-1.7-0.4-2.3-1.2
		c-0.6-0.8-1.1-1.8-1.5-2.9c-0.4-1.1-0.6-2.3-0.8-3.6c-0.2-1.2-0.3-2.3-0.3-3.2c0-0.2-0.1-0.4-0.1-0.6s0-0.4-0.1-0.6l-0.6-3.8
		c-0.6,2.8-1.3,5.7-1.8,8.5c-0.6,2.8-1.2,5.7-1.7,8.6c-0.2,1.1-0.7,1.9-1.7,2.5c-0.9,0.6-1.9,0.8-3,0.6c-1.1-0.2-1.9-0.8-2.5-1.7
		c-0.6-0.9-0.8-1.9-0.6-3c0.6-2.8,1.1-5.7,1.7-8.4c0.6-2.8,1.2-5.6,1.8-8.3c0.6-2.7,1.2-5.4,1.8-8.1c0.6-2.7,1.1-5.4,1.7-8.1
		l-0.1,0.3c0-0.1,0-0.2,0.1-0.3c0.1-0.2,0.1-0.4,0.1-0.6l-0.1,0.1c0.1-0.5,0.2-1.3,0.4-2.2c0.2-0.9,0.4-1.8,0.8-2.7
		c0.3-0.9,0.8-1.6,1.4-2.3c0.6-0.6,1.3-1,2.2-1c0.9,0,1.8,0.4,2.6,1.1v-0.1c0.5,0.4,1,1.5,1.3,3.2c0.3,1.1,0.5,2.4,0.8,3.9
		c0.3,1.5,0.6,3.2,0.9,5c0.2-1.1,0.4-2.4,0.7-3.7c0.3-1.3,0.6-2.6,1.1-3.7c0.4-1.1,1-2,1.6-2.8c0.6-0.7,1.4-1.1,2.3-1.1
		c0.8,0,1.6,0.3,2.3,1c0.3,0.4,0.7,1.2,1.1,2.6c0.4,1.3,0.9,2.9,1.3,4.9c0.5,1.9,1,4,1.5,6.3c0.5,2.3,1,4.6,1.5,7
		c0.5,2.4,1,4.6,1.5,6.8c0.5,2.2,0.9,4.2,1.2,5.9l0.9,4.6c0.2,1.1,0.1,2.1-0.5,3c-0.6,0.9-1.4,1.5-2.4,1.8c-0.5,0.2-1.1,0.2-1.6,0.1
		c-0.5-0.1-1-0.3-1.4-0.6c-0.4-0.3-0.8-0.6-1.1-1.1C-308.5-179.1-308.7-179.6-308.8-180.2z"/>
	<linearGradient id="SVGID_1_" gradientUnits="userSpaceOnUse" x1="-320.1174" y1="75.099" x2="-199.9534" y2="75.099">
		<stop  offset="0" style="stop-color:#00AEEF"/>
		<stop  offset="1" style="stop-color:#008FD5"/>
	</linearGradient>
	<path display="inline" fill="url(#SVGID_1_)" d="M-200.2,114.9c-3.6-18.2-13.7-76.9-19-82.4c-12.8-13.3-17.3,9.7-19.1,20.2
		c-1-6.1-1.5-23.1-6.8-27.2v0.1c-16.8-16-21.6,35.7-23.2,42.9c-1.5-8.6-0.3-27.9-7.4-32.7c-15.8-10.7-18,22.3-19.8,31.7
		c-1.7-8.5-2.8-47.2-18.1-43c-16.8,4.6,3.6,62.2,8.2,79.3c7.3,26.9,19.3,17.4,23.3-6.4c1,6.1,1.5,23.1,6.8,27.2v-0.1
		c16.8,16,21.6-35.7,23.2-42.9c1.5,8.6,0.3,27.9,7.4,32.7c15.8,10.7,18-22.3,19.8-31.7c1.7,8.6,2.4,33,8.9,39.5
		C-210.2,127.9-198,125.6-200.2,114.9z"/>
	<linearGradient id="SVGID_2_" gradientUnits="userSpaceOnUse" x1="-354.7213" y1="375.9699" x2="-69.496" y2="375.9699">
		<stop  offset="0" style="stop-color:#00AEEF"/>
		<stop  offset="1" style="stop-color:#008FD5"/>
	</linearGradient>
	<path display="inline" fill="url(#SVGID_2_)" d="M-69.6,369.3c-2.3-45.6-37.6-3.1-44,13.7c-2.1-45.4-27.1-43-42.1-7.3
		c-6.4-39.1-33.2-35.5-55.3-12.7c-17.3,17.9-33.8,42.7-40.7,11.3c-3.3-15.1,8.5-50.1-7.2-55c-15.6-4.9-7.2,72.2-29.1,69
		c-16.9-3.2,8.3-60.7-10-71.1c-13.7-7.8-22.4,83.5-35.5,69.3c-20.7-22.5,5.3-69.8-12.1-69.8c-25.8,0,9.2,140.6,38.7,49.5
		c2.1,45.4,27.1,43,42.1,7.3c8.4,43.9,34.3,20.7,49.2,8c12.1-10.3,31.6-40.6,46.8-6.6c6.3,14.1-8.5,50.1,7.2,55
		c15.6,4.9,7.2-72.2,29.1-69c16.9,3.2-8.3,60.7,10,71.1c13.7,7.8,16.2-69.3,35.5-69.3c10.9,0-13.6,71.6,8.4,72.4
		C-69.8,435.5-69.1,379.9-69.6,369.3C-69.8,365.9-69.5,372.8-69.6,369.3z"/>
	<linearGradient id="SVGID_3_" gradientUnits="userSpaceOnUse" x1="-318.2964" y1="494.9675" x2="-176.2958" y2="494.9675">
		<stop  offset="0" style="stop-color:#00AEEF"/>
		<stop  offset="1" style="stop-color:#008FD5"/>
	</linearGradient>
	<path display="inline" fill="url(#SVGID_3_)" d="M-298.4,514.2c22.8,38.4,39.2,7.8,49-9.2c7.9-13.8,25.8-56.5,45.7-24.9
		c15.4,24.5,8.8,54.6,21.6,52.1c12.8-2.5,3.3-15.5-13.9-51.3c-17.8-37.2-41.2-26.8-52.9,5c-8.6,23.3-19.7,54.2-36.9,24.6
		c-7.8-13.4-14.1-49.5-25.5-49.3C-322.7,461.4-321.2,475.8-298.4,514.2z"/>
	<linearGradient id="SVGID_4_" gradientUnits="userSpaceOnUse" x1="-276.0362" y1="494.9675" x2="-134.0355" y2="494.9675">
		<stop  offset="0" style="stop-color:#00AEEF"/>
		<stop  offset="1" style="stop-color:#008FD5"/>
	</linearGradient>
	<path display="inline" fill="url(#SVGID_4_)" d="M-256.2,514.2c22.8,38.4,39.2,7.8,49-9.2c7.9-13.8,25.8-56.5,45.7-24.9
		c15.4,24.5,8.8,54.6,21.6,52.1c12.8-2.5,3.3-15.5-13.9-51.3c-17.8-37.2-41.2-26.8-52.9,5c-8.6,23.3-19.7,54.2-36.9,24.6
		c-7.8-13.4-14.1-49.5-25.5-49.3C-280.5,461.4-279,475.8-256.2,514.2z"/>
	<path display="inline" fill="#00AEEF" d="M-279.8,186.8c11.4-11.4,30.3-5.6,34,9.2l-7.3,11.4c-0.9,0.8,0.4,1.5,1.1,1.1l21.8-21.7
		c7.7-8,20.6-8,28.6,0c7.7,7.7,7.7,20.9,0,29l-49.5,49.5c-8.2,8.2-21.1,8.2-28.7,0c-4-4-6-9.2-6-14.4l-13.7,13.7
		c-4.1,4.5-9.3,7.3-15.3,7.3c-11.4,0-20.6-9.3-20.6-20.6v-50.4c0-11.2,9.2-20.6,20.6-20.6c9.2,0,17.2,6.9,19.3,15.7l-7.3,11.4
		c-0.4,0.8,0.5,1.5,1.3,1.1L-279.8,186.8z"/>
	<path display="inline" fill="#008FD5" d="M-166.7,265.7c-11.1,11.2-30,5.4-33.8-9.2l7.3-11.6c0.8-0.8-0.4-1.5-1.1-1.1l-21.6,22
		c-8,8.2-20.9,8.2-28.9,0c-8.3-8-8.3-21.2,0-29.2l49.7-49.9c8-8,20.8-8,28.8,0c4.1,4.1,6,9.3,6,14.7l13.7-13.9
		c4.1-4.2,9.4-6.9,15.4-6.9c11.4,0,20.6,9.4,20.6,20.4v50.4c0,11.4-9.2,20.6-20.6,20.6c-9.4,0-17.7-6.5-19.7-15.3l7.5-11.6
		c0.4-0.8-0.6-1.5-1.4-1.1L-166.7,265.7z"/>
	<linearGradient id="SVGID_5_" gradientUnits="userSpaceOnUse" x1="-68.5157" y1="-213.861" x2="0.7429" y2="-213.861">
		<stop  offset="0" style="stop-color:#00AEEF"/>
		<stop  offset="1" style="stop-color:#008FD5"/>
	</linearGradient>
	<path display="inline" fill="url(#SVGID_5_)" d="M-41-233.3c5.6-5.6,15-2.8,16.9,4.6l-3.6,5.6c-0.4,0.4,0.2,0.8,0.6,0.6l10.8-10.8
		c3.8-4,10.2-4,14.2,0c3.8,3.8,3.8,10.4,0,14.4l-24.6,24.6c-4.1,4.1-10.5,4.1-14.3,0c-2-2-3-4.6-3-7.2l-6.8,6.8
		c-2,2.2-4.6,3.6-7.6,3.6c-5.6,0-10.2-4.6-10.2-10.2v-25c0-5.6,4.6-10.2,10.2-10.2c4.6,0,8.6,3.4,9.6,7.8l-3.6,5.6
		c-0.2,0.4,0.3,0.8,0.6,0.6L-41-233.3z"/>
	<linearGradient id="SVGID_6_" gradientUnits="userSpaceOnUse" x1="53.3527" y1="-213.8291" x2="-16.3333" y2="-213.8291">
		<stop  offset="0" style="stop-color:#00AEEF"/>
		<stop  offset="1" style="stop-color:#008FD5"/>
	</linearGradient>
	<path display="inline" fill="url(#SVGID_6_)" d="M25.5-194.2c-5.5,5.6-14.9,2.7-16.8-4.6l3.6-5.8c0.4-0.4-0.2-0.8-0.6-0.6
		L1.1-194.2c-4,4.1-10.4,4.1-14.3,0c-4.1-4-4.1-10.5,0-14.5l24.6-24.8c4-4,10.3-4,14.3,0c2,2,3,4.6,3,7.3l6.8-6.9
		c2-2.1,4.7-3.4,7.7-3.4c5.6,0,10.2,4.7,10.2,10.1v25c0,5.6-4.6,10.2-10.2,10.2c-4.7,0-8.8-3.2-9.8-7.6l3.7-5.8
		c0.2-0.4-0.3-0.8-0.7-0.6L25.5-194.2z"/>
	
		<text transform="matrix(1 0 0 1 -289.015 572.6619)" display="inline" fill="#00AEEF" font-family="'FISHfingers'" font-size="39px">WunderMinds</text>
	<text transform="matrix(1 0 0 1 130.1837 292.71)" display="inline"><tspan x="0" y="0" fill="#00AEEF" font-family="'KavaPro'" font-size="82.6105px">Wunder</tspan><tspan x="203.3" y="0" fill="#008FD5" font-family="'KavaPro'" font-size="82.6105px">Minds</tspan></text>
	<text transform="matrix(1 0 0 1 362.1269 505.6994)" display="inline"><tspan x="0" y="0" fill="#00AEEF" font-family="'KavaPro'" font-size="82.6105px">Wunder</tspan><tspan x="203.3" y="0" fill="#008FD5" font-family="'KavaPro'" font-size="82.6105px">Minds</tspan></text>
	
		<text transform="matrix(1 0 0 1 325.8665 679.9381)" display="inline" fill="#231F20" font-family="'KavaPro-Light'" font-size="96.332px">Felipe Costa</text>
	<g display="inline">
		<path fill="#00AEEF" d="M120.9,146.2C101.7,113.2,86.1,24,57.9,24.4c-28.2,0.4-24.4,36.1,31.9,130.9
			c41.6,70.2,74.7,47.1,98.9,13.3c-17.8,7.6-32.3,7.6-32.3,7.6C145.8,177.2,134.1,168.9,120.9,146.2z"/>
		
			<linearGradient id="SVGID_7_" gradientUnits="userSpaceOnUse" x1="41.2405" y1="98.0598" x2="391.988" y2="98.0598" gradientTransform="matrix(1 -2.951197e-03 2.951197e-03 1 -0.785 1.787)">
			<stop  offset="0" style="stop-color:#00AEEF"/>
			<stop  offset="1" style="stop-color:#008FD5"/>
		</linearGradient>
		<path fill="url(#SVGID_7_)" d="M255.5,21.9c-17.2,11-32.5,33.4-43.5,63.8c-14.5,39.9-31.9,88.6-55.4,90.9c0,0,14.5-0.1,32.3-7.7
			c8.5-11.9,15.8-25.1,22-36.1c16.9-29.7,52.2-113,93.5-83.6l0,0C304.4,49.1,285.9,26.1,255.5,21.9z"/>
		<path fill="#008FD5" d="M304.3,49.1c0,0,9.6,8.9,9.9,9.2C310.9,54.5,307.6,51.5,304.3,49.1z"/>
		<path fill="#008FD5" d="M255.5,21.9c-17.2,11-32.5,33.4-43.5,63.8c-14.5,39.9-40.8,119.1-76.6,80.7c0,0,19.8,34.8,47.7,10.1
			c8.5-11.9,21.6-32.8,27.8-43.7c16.9-29.7,52.2-113,93.5-83.6l0,0C304.4,49.1,285.9,26.1,255.5,21.9z"/>
		<path fill="#008FD5" d="M255.5,21.9c30.4,4.1,48.8,27.2,48.8,27.2l0,0c3.3,2.3,6.6,5.4,9.9,9.2c0,0,0,0,0,0S298,21.8,255.5,21.9z"
			/>
		<path fill="#00AEEF" d="M228.4,146.2c-19.2-33-34.8-122.2-62.9-121.8c-28.2,0.4-24.4,36.1,31.9,130.9
			c41.6,70.2,74.7,47.1,98.9,13.3c-17.8,7.6-32.3,7.6-32.3,7.6C253.3,177.2,241.6,168.9,228.4,146.2z"/>
		<path fill="#00AEEF" d="M450.2,73.1c-27.1-56.6-59.3-68.6-86.9-51.2c30.4,4.2,48.7,27.3,48.7,27.3s0,0,0,0
			c6.3,4.5,12.7,11.6,19.1,21.8c38.1,60.4,21.7,134.8,53.3,128.6S492.5,161.5,450.2,73.1z"/>
		<linearGradient id="SVGID_8_" gradientUnits="userSpaceOnUse" x1="148.2778" y1="99.0682" x2="499.0269" y2="99.0682">
			<stop  offset="0" style="stop-color:#00AEEF"/>
			<stop  offset="1" style="stop-color:#008FD5"/>
		</linearGradient>
		<path fill="url(#SVGID_8_)" d="M363.3,21.9c-17.2,10.9-32.6,33.3-43.7,63.6c-14.6,39.8-32.2,88.5-55.7,90.7c0,0,14.5,0,32.3-7.6
			c8.5-11.9,15.9-25.1,22.1-36c17-29.6,52.5-112.9,93.7-83.3c0,0,0,0,0,0S393.7,26.1,363.3,21.9z"/>
		<path fill="#008FD5" d="M363.3,21.9c-17.2,10.9-32.6,33.3-43.7,63.6c-14.6,39.8-41.1,119-76.9,80.5c0,0,19.7,34.9,47.7,10.2
			c8.5-11.9,21.7-32.7,27.9-43.6c17-29.6,52.5-112.9,93.7-83.3c0,0,9.9,9.2,9.9,9.2S405.7,21.9,363.3,21.9z"/>
		<path fill="#00AEEF" d="M342.6,72.8C315.4,16.4,283,4.4,255.5,21.9c42.4-0.1,58.7,36.4,58.7,36.4s0,0,0,0
			c3.1,3.5,6.2,7.7,9.3,12.6c38.3,60.3,22.1,134.8,53.7,128.5C408.8,193,385.2,161.1,342.6,72.8z"/>
	</g>
	<g display="inline">
		<path fill="#00AEEF" d="M206.7,489.1c-6.7-11.4-12.1-42.4-21.8-42.2c-9.8,0.1-8.5,12.5,11,45.4c14.4,24.3,25.9,16.3,34.3,4.6
			c-6.2,2.6-11.2,2.6-11.2,2.6C215.4,499.9,211.3,497,206.7,489.1z"/>
		
			<linearGradient id="SVGID_9_" gradientUnits="userSpaceOnUse" x1="178.332" y1="471.7704" x2="299.9406" y2="471.7704" gradientTransform="matrix(1 -2.951197e-03 2.951197e-03 1 -0.785 1.787)">
			<stop  offset="0" style="stop-color:#00AEEF"/>
			<stop  offset="1" style="stop-color:#008FD5"/>
		</linearGradient>
		<path fill="url(#SVGID_9_)" d="M253.4,446.1c-6,3.8-11.3,11.6-15.1,22.1c-5,13.8-11.1,30.7-19.2,31.5c0,0,5,0,11.2-2.7
			c2.9-4.1,5.5-8.7,7.6-12.5c5.9-10.3,18.1-39.2,32.4-29l0,0C270.3,455.5,263.9,447.5,253.4,446.1z"/>
		<path fill="#008FD5" d="M270.3,455.5c0,0,3.3,3.1,3.4,3.2C272.6,457.3,271.5,456.3,270.3,455.5z"/>
		<path fill="#008FD5" d="M253.4,446.1c-6,3.8-11.3,11.6-15.1,22.1c-5,13.8-14.1,41.3-26.6,28c0,0,6.9,12.1,16.5,3.5
			c2.9-4.1,7.5-11.4,9.6-15.2c5.9-10.3,18.1-39.2,32.4-29l0,0C270.3,455.5,263.9,447.5,253.4,446.1z"/>
		<path fill="#008FD5" d="M253.4,446.1c10.5,1.4,16.9,9.4,16.9,9.4l0,0c1.1,0.8,2.3,1.9,3.4,3.2c0,0,0,0,0,0S268.1,446,253.4,446.1z
			"/>
		<path fill="#00AEEF" d="M244,489.1c-6.7-11.4-12.1-42.4-21.8-42.2c-9.8,0.1-8.5,12.5,11,45.4c14.4,24.3,25.9,16.3,34.3,4.6
			c-6.2,2.6-11.2,2.6-11.2,2.6C252.6,499.9,248.6,497,244,489.1z"/>
		<path fill="#00AEEF" d="M320.9,463.8c-9.4-19.6-20.6-23.8-30.1-17.7c10.5,1.5,16.9,9.5,16.9,9.5l0,0c2.2,1.6,4.4,4,6.6,7.6
			c13.2,20.9,7.5,46.8,18.5,44.6S335.6,494.4,320.9,463.8z"/>
		<linearGradient id="SVGID_10_" gradientUnits="userSpaceOnUse" x1="216.2223" y1="472.8034" x2="337.8313" y2="472.8034">
			<stop  offset="0" style="stop-color:#00AEEF"/>
			<stop  offset="1" style="stop-color:#008FD5"/>
		</linearGradient>
		<path fill="url(#SVGID_10_)" d="M290.8,446c-6,3.8-11.3,11.6-15.2,22.1c-5.1,13.8-11.2,30.7-19.3,31.4c0,0,5,0,11.2-2.6
			c2.9-4.1,5.5-8.7,7.7-12.5c5.9-10.3,18.2-39.1,32.5-28.9l0,0C307.7,455.5,301.3,447.5,290.8,446z"/>
		<path fill="#008FD5" d="M290.8,446c-6,3.8-11.3,11.6-15.2,22.1c-5.1,13.8-14.3,41.3-26.7,27.9c0,0,6.8,12.1,16.5,3.5
			c2.9-4.1,7.5-11.3,9.7-15.1c5.9-10.3,18.2-39.1,32.5-28.9l3.4,3.2C311.1,458.7,305.5,446,290.8,446z"/>
		<path fill="#00AEEF" d="M283.6,463.7c-9.4-19.6-20.6-23.7-30.2-17.6c14.7,0,20.4,12.6,20.4,12.6s0,0,0,0c1.1,1.2,2.1,2.7,3.2,4.4
			c13.3,20.9,7.7,46.7,18.6,44.5C306.5,505.4,298.4,494.3,283.6,463.7z"/>
	</g>
	<text transform="matrix(1.0018 0 0 1 873.1501 292.7104)" display="inline"><tspan x="0" y="0" fill="#00AEEF" font-family="'EnzoOT-Medi'" font-size="31.024px">Wunder</tspan><tspan x="102.6" y="0" fill="#008FD5" font-family="'EnzoOT-Medi'" font-size="31.024px">Minds</tspan></text>
	
		<text transform="matrix(1 0 0 1 910.6735 350.5226)" display="inline" fill="#231F20" font-family="'EnzoOT-Medi'" font-size="39px">Felipe Costa</text>
	<path display="inline" fill="#00AEEF" d="M900.8,236.4c-7.8-13.4-14.1-49.5-25.5-49.3c-11.4,0.2-9.9,14.6,12.9,53
		c16.8,28.4,30.2,19.1,40,5.4c-7.2,3.1-13.1,3.1-13.1,3.1C910.9,249,906.1,245.6,900.8,236.4z"/>
	
		<linearGradient id="SVGID_11_" gradientUnits="userSpaceOnUse" x1="868.5056" y1="218.3625" x2="1010.5057" y2="218.3625" gradientTransform="matrix(1 -2.951197e-03 2.951197e-03 1 -0.785 1.787)">
		<stop  offset="0" style="stop-color:#00AEEF"/>
		<stop  offset="1" style="stop-color:#008FD5"/>
	</linearGradient>
	<path display="inline" fill="url(#SVGID_11_)" d="M955.3,186.1c-7,4.4-13.2,13.5-17.6,25.8c-5.9,16.1-12.9,35.9-22.4,36.8
		c0,0,5.9,0,13.1-3.1c3.4-4.8,6.4-10.2,8.9-14.6c6.8-12,21.1-45.8,37.8-33.9c0,0,0,0,0,0S967.6,187.8,955.3,186.1z"/>
	<path display="inline" fill="#008FD5" d="M975.1,197.1c0,0,3.9,3.6,4,3.7C977.7,199.3,976.4,198,975.1,197.1z"/>
	<path display="inline" fill="#008FD5" d="M955.3,186.1c-7,4.4-13.2,13.5-17.6,25.8c-5.9,16.1-16.5,48.2-31,32.7
		c0,0,8,14.1,19.3,4.1c3.4-4.8,8.7-13.3,11.3-17.7c6.8-12,21.1-45.8,37.8-33.9c0,0,0,0,0,0S967.6,187.8,955.3,186.1z"/>
	<path display="inline" fill="#008FD5" d="M955.3,186.1c12.3,1.7,19.8,11,19.8,11s0,0,0,0c1.3,0.9,2.7,2.2,4,3.7c0,0,0,0,0,0
		S972.5,186,955.3,186.1z"/>
	<path display="inline" fill="#00AEEF" d="M944.3,236.4c-7.8-13.4-14.1-49.5-25.5-49.3c-11.4,0.2-9.9,14.6,12.9,53
		c16.8,28.4,30.2,19.1,40,5.4c-7.2,3.1-13.1,3.1-13.1,3.1C954.4,249,949.7,245.6,944.3,236.4z"/>
	<path display="inline" fill="#00AEEF" d="M1034.1,206.8c-11-22.9-24-27.8-35.2-20.7c12.3,1.7,19.7,11.1,19.7,11.1l0,0
		c2.5,1.8,5.1,4.7,7.7,8.8c15.4,24.5,8.8,54.6,21.6,52.1S1051.3,242.6,1034.1,206.8z"/>
	<linearGradient id="SVGID_12_" gradientUnits="userSpaceOnUse" x1="911.8997" y1="217.3204" x2="1053.9004" y2="217.3204">
		<stop  offset="0" style="stop-color:#00AEEF"/>
		<stop  offset="1" style="stop-color:#008FD5"/>
	</linearGradient>
	<path display="inline" fill="url(#SVGID_12_)" d="M999,186.1c-7,4.4-13.2,13.5-17.7,25.8c-5.9,16.1-13,35.8-22.6,36.7
		c0,0,5.9,0,13.1-3.1c3.4-4.8,6.4-10.2,9-14.6c6.9-12,21.3-45.7,37.9-33.7l0,0C1018.7,197.2,1011.2,187.8,999,186.1z"/>
	<path display="inline" fill="#008FD5" d="M999,186.1c-7,4.4-13.2,13.5-17.7,25.8c-5.9,16.1-16.6,48.2-31.1,32.6
		c0,0,8,14.1,19.3,4.1c3.4-4.8,8.8-13.2,11.3-17.7c6.9-12,21.3-45.7,37.9-33.7l4,3.7C1022.7,200.9,1016.1,186.1,999,186.1z"/>
	<path display="inline" fill="#00AEEF" d="M990.6,206.7c-11-22.9-24.1-27.7-35.2-20.6c17.2-0.1,23.8,14.7,23.8,14.7s0,0,0,0
		c1.2,1.4,2.5,3.1,3.8,5.1c15.5,24.4,9,54.6,21.7,52C1017.4,255.4,1007.8,242.4,990.6,206.7z"/>
	<text transform="matrix(1 0 0 1 870.4139 489.3666)" display="inline"><tspan x="0" y="0" fill="#00AEEF" font-family="'DomusTitling'" font-size="24.3852px">Wunder</tspan><tspan x="105.4" y="0" fill="#008FD5" font-family="'DomusTitling'" font-size="24.3852px">Minds</tspan></text>
	
		<text transform="matrix(1 0 0 1 887.3322 552.434)" display="inline" fill="#231F20" font-family="'DomusTitlingLight'" font-size="39px">Felipe Costa</text>
	<path display="inline" fill="#00AEEF" d="M900.8,438.3c-7.8-13.4-14.1-49.5-25.5-49.3c-11.4,0.2-9.9,14.6,12.9,53
		c16.8,28.4,30.2,19.1,40,5.4c-7.2,3.1-13.1,3.1-13.1,3.1C910.9,450.9,906.1,447.5,900.8,438.3z"/>
	
		<linearGradient id="SVGID_13_" gradientUnits="userSpaceOnUse" x1="867.9097" y1="420.2721" x2="1009.9098" y2="420.2721" gradientTransform="matrix(1 -2.951197e-03 2.951197e-03 1 -0.785 1.787)">
		<stop  offset="0" style="stop-color:#00AEEF"/>
		<stop  offset="1" style="stop-color:#008FD5"/>
	</linearGradient>
	<path display="inline" fill="url(#SVGID_13_)" d="M955.3,388c-7,4.4-13.2,13.5-17.6,25.8c-5.9,16.1-12.9,35.9-22.4,36.8
		c0,0,5.9,0,13.1-3.1c3.4-4.8,6.4-10.2,8.9-14.6c6.8-12,21.1-45.8,37.8-33.9l0,0C975.1,399,967.6,389.7,955.3,388z"/>
	<path display="inline" fill="#008FD5" d="M975.1,399c0,0,3.9,3.6,4,3.7C977.7,401.2,976.4,400,975.1,399z"/>
	<path display="inline" fill="#008FD5" d="M955.3,388c-7,4.4-13.2,13.5-17.6,25.8c-5.9,16.1-16.5,48.2-31,32.7c0,0,8,14.1,19.3,4.1
		c3.4-4.8,8.7-13.3,11.3-17.7c6.8-12,21.1-45.8,37.8-33.9l0,0C975.1,399,967.6,389.7,955.3,388z"/>
	<path display="inline" fill="#008FD5" d="M955.3,388c12.3,1.7,19.8,11,19.8,11l0,0c1.3,0.9,2.7,2.2,4,3.7c0,0,0,0,0,0
		S972.5,388,955.3,388z"/>
	<path display="inline" fill="#00AEEF" d="M944.3,438.3c-7.8-13.4-14.1-49.5-25.5-49.3c-11.4,0.2-9.9,14.6,12.9,53
		c16.8,28.4,30.2,19.1,40,5.4c-7.2,3.1-13.1,3.1-13.1,3.1C954.4,450.9,949.7,447.5,944.3,438.3z"/>
	<path display="inline" fill="#00AEEF" d="M1034.1,408.7c-11-22.9-24-27.8-35.2-20.7c12.3,1.7,19.7,11.1,19.7,11.1l0,0
		c2.5,1.8,5.1,4.7,7.7,8.8c15.4,24.5,8.8,54.6,21.6,52.1S1051.3,444.5,1034.1,408.7z"/>
	<linearGradient id="SVGID_14_" gradientUnits="userSpaceOnUse" x1="911.8997" y1="419.2318" x2="1053.9004" y2="419.2318">
		<stop  offset="0" style="stop-color:#00AEEF"/>
		<stop  offset="1" style="stop-color:#008FD5"/>
	</linearGradient>
	<path display="inline" fill="url(#SVGID_14_)" d="M999,388c-7,4.4-13.2,13.5-17.7,25.8c-5.9,16.1-13,35.8-22.6,36.7
		c0,0,5.9,0,13.1-3.1c3.4-4.8,6.4-10.2,9-14.6c6.9-12,21.3-45.7,37.9-33.7l0,0C1018.7,399.1,1011.2,389.7,999,388z"/>
	<path display="inline" fill="#008FD5" d="M999,388c-7,4.4-13.2,13.5-17.7,25.8c-5.9,16.1-16.6,48.2-31.1,32.6c0,0,8,14.1,19.3,4.1
		c3.4-4.8,8.8-13.2,11.3-17.7c6.9-12,21.3-45.7,37.9-33.7l4,3.7C1022.7,402.8,1016.1,388,999,388z"/>
	<path display="inline" fill="#00AEEF" d="M990.6,408.6c-11-22.9-24.1-27.7-35.2-20.6c17.2-0.1,23.8,14.7,23.8,14.7s0,0,0,0
		c1.2,1.4,2.5,3.1,3.8,5.1c15.5,24.4,9,54.6,21.7,52C1017.4,457.3,1007.8,444.3,990.6,408.6z"/>
	<g display="inline">
		<text transform="matrix(1 0 0 1 586.4446 375.97)" fill="#00AEEF" font-family="'KavaPro'" font-size="33.8003px">0/143/213  #008fd5</text>
		<text transform="matrix(1 0 0 1 586.6644 331.3682)" fill="#00AEEF" font-family="'KavaPro'" font-size="33.8003px">0/174/239  #00aeef</text>
		<circle fill="#00AEEF" cx="563.4" cy="317.6" r="13.8"/>
		<circle fill="#008FD5" cx="563.4" cy="362.2" r="13.8"/>
	</g>
</g>
<g id="Layer_1" display="none">
	<path display="inline" fill="#00AEEF" d="M151.3-117.3c0.6,2.7,1.1,5.4,1.7,8.1c0.6,2.7,1.1,5.3,1.7,8c0.3-1.8,0.7-3.5,1-5.1
		c0.3-1.6,0.7-3.1,1-4.4c0.3-1.3,0.7-2.4,1-3.2c0.3-0.9,0.6-1.4,0.9-1.6c0.9-0.6,1.8-1,2.6-1c0.9,0,1.7,0.4,2.3,1.2
		c0.6,0.8,1.1,1.8,1.5,2.9c0.4,1.1,0.6,2.3,0.8,3.6c0.2,1.2,0.3,2.3,0.3,3.2c0,0.2,0.1,0.4,0.1,0.6s0,0.4,0.1,0.6l0.6,3.8
		c0.6-2.8,1.3-5.7,1.8-8.5c0.6-2.8,1.2-5.7,1.7-8.6c0.2-1.1,0.7-1.9,1.7-2.5c0.9-0.6,1.9-0.8,3-0.6c1.1,0.2,1.9,0.8,2.5,1.7
		c0.6,0.9,0.8,1.9,0.6,3c-0.6,2.8-1.1,5.7-1.7,8.4c-0.6,2.8-1.2,5.6-1.8,8.3c-0.6,2.7-1.2,5.4-1.8,8.1c-0.6,2.7-1.1,5.4-1.7,8.1
		l0.1-0.3c0,0.1,0,0.2-0.1,0.3c-0.1,0.2-0.1,0.4-0.1,0.6l0.1-0.1c-0.1,0.5-0.2,1.3-0.4,2.2c-0.2,0.9-0.4,1.8-0.8,2.7
		c-0.3,0.9-0.8,1.6-1.4,2.3c-0.6,0.6-1.3,1-2.2,1c-0.9,0-1.8-0.4-2.6-1.1v0.1c-0.5-0.4-1-1.5-1.3-3.2c-0.3-1.1-0.5-2.4-0.8-3.9
		c-0.3-1.5-0.6-3.2-0.9-5c-0.2,1.1-0.4,2.4-0.7,3.7c-0.3,1.3-0.6,2.6-1.1,3.7c-0.4,1.1-1,2-1.6,2.8c-0.6,0.7-1.4,1.1-2.3,1.1
		c-0.8,0-1.6-0.3-2.3-1c-0.3-0.4-0.7-1.2-1.1-2.6c-0.4-1.3-0.9-2.9-1.3-4.9c-0.5-1.9-1-4-1.5-6.3c-0.5-2.3-1-4.6-1.5-7
		c-0.5-2.4-1-4.6-1.5-6.8c-0.5-2.2-0.9-4.2-1.2-5.9l-0.9-4.6c-0.2-1.1-0.1-2.1,0.5-3c0.6-0.9,1.4-1.5,2.4-1.8
		c0.5-0.2,1.1-0.2,1.6-0.1c0.5,0.1,1,0.3,1.4,0.6c0.4,0.3,0.8,0.6,1.1,1.1C151-118.3,151.2-117.8,151.3-117.3z"/>
	<path display="inline" fill="#008FD5" d="M189.5-78.3c-0.6-2.7-1.1-5.4-1.7-8.1c-0.6-2.7-1.1-5.3-1.7-8c-0.3,1.8-0.7,3.5-1,5.1
		c-0.3,1.6-0.7,3.1-1,4.4c-0.3,1.3-0.7,2.4-1,3.2c-0.3,0.9-0.6,1.4-0.9,1.6c-0.9,0.6-1.8,1-2.6,1c-0.9,0-1.7-0.4-2.3-1.2
		c-0.6-0.8-1.1-1.8-1.5-2.9c-0.4-1.1-0.6-2.3-0.8-3.6c-0.2-1.2-0.3-2.3-0.3-3.2c0-0.2-0.1-0.4-0.1-0.6c0-0.2,0-0.4-0.1-0.6l-0.6-3.8
		c-0.6,2.8-1.3,5.7-1.8,8.5c-0.6,2.8-1.2,5.7-1.7,8.6c-0.2,1.1-0.7,1.9-1.7,2.5c-0.9,0.6-1.9,0.8-3,0.6c-1.1-0.2-1.9-0.8-2.5-1.7
		c-0.6-0.9-0.8-1.9-0.6-3c0.6-2.8,1.1-5.7,1.7-8.4c0.6-2.8,1.2-5.6,1.8-8.3c0.6-2.7,1.2-5.4,1.8-8.1c0.6-2.7,1.1-5.4,1.7-8.1
		l-0.1,0.3c0-0.1,0-0.2,0.1-0.3c0.1-0.2,0.1-0.4,0.1-0.6l-0.1,0.1c0.1-0.5,0.2-1.3,0.4-2.2c0.2-0.9,0.4-1.8,0.8-2.7
		c0.3-0.9,0.8-1.6,1.4-2.3c0.6-0.6,1.3-1,2.2-1c0.9,0,1.8,0.4,2.6,1.1v-0.1c0.5,0.4,1,1.5,1.3,3.2c0.3,1.1,0.5,2.4,0.8,3.9
		c0.3,1.5,0.6,3.2,0.9,5c0.2-1.1,0.4-2.4,0.7-3.7c0.3-1.3,0.6-2.6,1.1-3.7c0.4-1.1,1-2,1.6-2.8c0.6-0.7,1.4-1.1,2.3-1.1
		c0.8,0,1.6,0.3,2.3,1c0.3,0.4,0.7,1.2,1.1,2.6c0.4,1.3,0.9,2.9,1.3,4.9c0.5,1.9,1,4,1.5,6.3c0.5,2.3,1,4.6,1.5,7
		c0.5,2.4,1,4.6,1.5,6.8c0.5,2.2,0.9,4.2,1.2,5.9l0.9,4.6c0.2,1.1,0.1,2.1-0.5,3c-0.6,0.9-1.4,1.5-2.4,1.8c-0.5,0.2-1.1,0.2-1.6,0.1
		c-0.5-0.1-1-0.3-1.4-0.6c-0.4-0.3-0.8-0.6-1.1-1.1C189.8-77.3,189.6-77.8,189.5-78.3z"/>
	<linearGradient id="SVGID_15_" gradientUnits="userSpaceOnUse" x1="76.4172" y1="660.2251" x2="225.1207" y2="660.2251">
		<stop  offset="0" style="stop-color:#00AEEF"/>
		<stop  offset="1" style="stop-color:#008FD5"/>
	</linearGradient>
	<path display="inline" fill="url(#SVGID_15_)" d="M224.8,709.5c-4.5-22.5-16.9-95.2-23.5-102c-15.9-16.5-21.4,12.1-23.6,25
		c-1.3-7.5-1.9-28.5-8.4-33.6v0.2c-20.8-19.8-26.7,44.1-28.7,53.1c-1.8-10.6-0.4-34.5-9.2-40.4c-19.5-13.3-22.3,27.6-24.5,39.2
		c-2.1-10.6-3.5-58.4-22.4-53.2c-20.8,5.7,4.4,77,10.2,98.2c9.1,33.3,23.9,21.6,28.8-8c1.3,7.5,1.9,28.5,8.4,33.6v-0.2
		c20.8,19.8,26.7-44.1,28.7-53.1c1.8,10.6,0.4,34.5,9.2,40.4c19.5,13.3,22.3-27.6,24.5-39.2c2.1,10.6,2.9,40.8,11.1,48.9
		C212.5,725.5,227.6,722.7,224.8,709.5z"/>
	<linearGradient id="SVGID_16_" gradientUnits="userSpaceOnUse" x1="431.3868" y1="692.6151" x2="784.3546" y2="692.6151">
		<stop  offset="0" style="stop-color:#00AEEF"/>
		<stop  offset="1" style="stop-color:#008FD5"/>
	</linearGradient>
	<path display="inline" fill="url(#SVGID_16_)" d="M784.2,684.4c-2.8-56.4-46.6-3.9-54.5,17c-2.7-56.2-33.5-53.2-52.1-9
		c-8-48.4-41.1-44-68.4-15.7c-21.4,22.1-41.8,52.8-50.4,14c-4.1-18.7,10.5-62-8.9-68.1c-19.3-6.1-8.9,89.3-36.1,85.4
		c-20.9-3.9,10.3-75.2-12.3-88c-17-9.6-27.7,103.4-43.9,85.8c-25.6-27.8,6.6-86.3-15-86.4c-32-0.1,11.3,174,47.9,61.2
		c2.7,56.2,33.5,53.2,52.1,9c10.3,54.3,42.4,25.6,60.9,9.9c15-12.8,39-50.3,58-8.2c7.8,17.5-10.5,62,8.9,68.1
		c19.3,6.1,8.9-89.3,36.1-85.4c20.9,3.9-10.3,75.2,12.3,88c17,9.6,20-85.8,43.9-85.8c13.5,0-16.9,88.6,10.3,89.6
		C784,766.3,784.8,697.5,784.2,684.4C784,680.1,784.4,688.7,784.2,684.4z"/>
	<linearGradient id="SVGID_17_" gradientUnits="userSpaceOnUse" x1="476.4628" y1="908.1531" x2="652.1893" y2="908.1531">
		<stop  offset="0" style="stop-color:#00AEEF"/>
		<stop  offset="1" style="stop-color:#008FD5"/>
	</linearGradient>
	<path display="inline" fill="url(#SVGID_17_)" d="M501,932c28.2,47.5,48.6,9.7,60.6-11.4c9.8-17.1,31.9-69.9,56.6-30.8
		c19.1,30.3,10.9,67.6,26.7,64.4c15.8-3.1,4-19.2-17.2-63.4c-22-46-51-33.2-65.5,6.2c-10.6,28.9-24.3,67.1-45.7,30.4
		c-9.6-16.5-17.4-61.2-31.5-61C471,866.6,472.8,884.5,501,932z"/>
	<linearGradient id="SVGID_18_" gradientUnits="userSpaceOnUse" x1="528.7601" y1="908.1531" x2="704.4866" y2="908.1531">
		<stop  offset="0" style="stop-color:#00AEEF"/>
		<stop  offset="1" style="stop-color:#008FD5"/>
	</linearGradient>
	<path display="inline" fill="url(#SVGID_18_)" d="M553.3,932c28.2,47.5,48.6,9.7,60.6-11.4c9.8-17.1,31.9-69.9,56.6-30.8
		c19.1,30.3,10.9,67.6,26.7,64.4c15.8-3.1,4-19.2-17.2-63.4c-22-46-51-33.2-65.5,6.2c-10.6,28.9-24.3,67.1-45.7,30.4
		c-9.6-16.5-17.4-61.2-31.5-61C523.2,866.6,525.1,884.5,553.3,932z"/>
	<path display="inline" fill="#00AEEF" d="M126.3,866.7c14.1-14.1,37.4-7,42,11.4l-9,14.1c-1.1,0.9,0.5,1.9,1.4,1.4l27-26.9
		c9.5-10,25.4-10,35.4,0c9.5,9.5,9.5,25.9,0,35.9l-61.3,61.3c-10.1,10.1-26.1,10.1-35.5,0c-4.9-4.9-7.4-11.4-7.4-17.9l-16.9,16.9
		c-5.1,5.5-11.5,9-19,9c-14.1,0-25.4-11.5-25.4-25.4v-62.4c0-13.9,11.4-25.4,25.4-25.4c11.4,0,21.3,8.5,23.9,19.4l-9,14.1
		c-0.5,0.9,0.6,1.9,1.6,1.4L126.3,866.7z"/>
	<path display="inline" fill="#008FD5" d="M266.2,964.3c-13.7,13.9-37.1,6.6-41.9-11.4l9-14.4c0.9-0.9-0.5-1.9-1.4-1.4l-26.7,27.2
		c-10,10.1-25.9,10.1-35.7,0c-10.3-10-10.3-26.2,0-36.2l61.5-61.8c10-10,25.7-10,35.7,0c5.1,5.1,7.4,11.5,7.4,18.2l16.9-17.2
		c5.1-5.2,11.7-8.5,19.1-8.5c14.1,0,25.4,11.7,25.4,25.3v62.4c0,14.1-11.4,25.4-25.4,25.4c-11.7,0-22-8.1-24.3-19l9.3-14.4
		c0.5-0.9-0.8-1.9-1.7-1.4L266.2,964.3z"/>
	<linearGradient id="SVGID_19_" gradientUnits="userSpaceOnUse" x1="429.7682" y1="-111.9944" x2="499.0268" y2="-111.9944">
		<stop  offset="0" style="stop-color:#00AEEF"/>
		<stop  offset="1" style="stop-color:#008FD5"/>
	</linearGradient>
	<path display="inline" fill="url(#SVGID_19_)" d="M457.3-131.5c5.6-5.6,15-2.8,16.9,4.6l-3.6,5.6c-0.4,0.4,0.2,0.8,0.6,0.6
		l10.8-10.8c3.8-4,10.2-4,14.2,0c3.8,3.8,3.8,10.4,0,14.4l-24.6,24.6c-4.1,4.1-10.5,4.1-14.3,0c-2-2-3-4.6-3-7.2l-6.8,6.8
		c-2,2.2-4.6,3.6-7.6,3.6c-5.6,0-10.2-4.6-10.2-10.2v-25c0-5.6,4.6-10.2,10.2-10.2c4.6,0,8.6,3.4,9.6,7.8l-3.6,5.6
		c-0.2,0.4,0.3,0.8,0.6,0.6L457.3-131.5z"/>
	<linearGradient id="SVGID_20_" gradientUnits="userSpaceOnUse" x1="551.6367" y1="-111.9626" x2="481.9506" y2="-111.9626">
		<stop  offset="0" style="stop-color:#00AEEF"/>
		<stop  offset="1" style="stop-color:#008FD5"/>
	</linearGradient>
	<path display="inline" fill="url(#SVGID_20_)" d="M523.8-92.3c-5.5,5.6-14.9,2.7-16.8-4.6l3.6-5.8c0.4-0.4-0.2-0.8-0.6-0.6
		l-10.7,10.9c-4,4.1-10.4,4.1-14.3,0c-4.1-4-4.1-10.5,0-14.5l24.6-24.8c4-4,10.3-4,14.3,0c2,2,3,4.6,3,7.3l6.8-6.9
		c2-2.1,4.7-3.4,7.7-3.4c5.6,0,10.2,4.7,10.2,10.1v25c0,5.6-4.6,10.2-10.2,10.2c-4.7,0-8.8-3.2-9.8-7.6l3.7-5.8
		c0.2-0.4-0.3-0.8-0.7-0.6L523.8-92.3z"/>
	
		<text transform="matrix(1 0 0 1 512.6996 1004.301)" display="inline" fill="#00AEEF" font-family="'FISHfingers'" font-size="48.2627px">WunderMinds</text>
	<text transform="matrix(1.0018 0 0 1 1023.4661 327.5316)" display="inline"><tspan x="0" y="0" fill="#00AEEF" font-family="'EnzoOT-Medi'" font-size="31.024px">Wunder</tspan><tspan x="102.6" y="0" fill="#008FD5" font-family="'EnzoOT-Medi'" font-size="31.024px">Minds</tspan></text>
	<path display="inline" fill="#00AEEF" d="M1051.1,271.2c-7.8-13.4-14.1-49.5-25.5-49.3s-9.9,14.6,12.9,53
		c16.8,28.4,30.2,19.1,40,5.4c-7.2,3.1-13.1,3.1-13.1,3.1C1061.2,283.8,1056.5,280.4,1051.1,271.2z"/>
	
		<linearGradient id="SVGID_21_" gradientUnits="userSpaceOnUse" x1="1018.7175" y1="253.6269" x2="1160.7175" y2="253.6269" gradientTransform="matrix(1 -2.951197e-03 2.951197e-03 1 -0.785 1.787)">
		<stop  offset="0" style="stop-color:#00AEEF"/>
		<stop  offset="1" style="stop-color:#008FD5"/>
	</linearGradient>
	<path display="inline" fill="url(#SVGID_21_)" d="M1105.6,220.9c-7,4.4-13.2,13.5-17.6,25.8c-5.9,16.1-12.9,35.9-22.4,36.8
		c0,0,5.9,0,13.1-3.1c3.4-4.8,6.4-10.2,8.9-14.6c6.8-12,21.1-45.8,37.8-33.9l0,0C1125.4,231.9,1117.9,222.6,1105.6,220.9z"/>
	<path display="inline" fill="#008FD5" d="M1125.4,231.9c0,0,3.9,3.6,4,3.7C1128.1,234.1,1126.7,232.9,1125.4,231.9z"/>
	<path display="inline" fill="#008FD5" d="M1105.6,220.9c-7,4.4-13.2,13.5-17.6,25.8c-5.9,16.1-16.5,48.2-31,32.7
		c0,0,8,14.1,19.3,4.1c3.4-4.8,8.7-13.3,11.3-17.7c6.8-12,21.1-45.8,37.8-33.9l0,0C1125.4,231.9,1117.9,222.6,1105.6,220.9z"/>
	<path display="inline" fill="#008FD5" d="M1105.6,220.9c12.3,1.7,19.8,11,19.8,11l0,0c1.3,0.9,2.7,2.2,4,3.7c0,0,0,0,0,0
		S1122.8,220.9,1105.6,220.9z"/>
	<path display="inline" fill="#00AEEF" d="M1094.6,271.2c-7.8-13.4-14.1-49.5-25.5-49.3c-11.4,0.2-9.9,14.6,12.9,53
		c16.8,28.4,30.2,19.1,40,5.4c-7.2,3.1-13.1,3.1-13.1,3.1C1104.7,283.8,1100,280.4,1094.6,271.2z"/>
	<path display="inline" fill="#00AEEF" d="M1184.5,241.6c-11-22.9-24-27.8-35.2-20.7c12.3,1.7,19.7,11.1,19.7,11.1l0,0
		c2.5,1.8,5.1,4.7,7.7,8.8c15.4,24.5,8.8,54.6,21.6,52.1S1201.6,277.4,1184.5,241.6z"/>
	<linearGradient id="SVGID_22_" gradientUnits="userSpaceOnUse" x1="1062.2157" y1="252.1415" x2="1204.2163" y2="252.1415">
		<stop  offset="0" style="stop-color:#00AEEF"/>
		<stop  offset="1" style="stop-color:#008FD5"/>
	</linearGradient>
	<path display="inline" fill="url(#SVGID_22_)" d="M1149.3,220.9c-7,4.4-13.2,13.5-17.7,25.8c-5.9,16.1-13,35.8-22.6,36.7
		c0,0,5.9,0,13.1-3.1c3.4-4.8,6.4-10.2,9-14.6c6.9-12,21.3-45.7,37.9-33.7l0,0C1169,232,1161.6,222.6,1149.3,220.9z"/>
	<path display="inline" fill="#008FD5" d="M1149.3,220.9c-7,4.4-13.2,13.5-17.7,25.8c-5.9,16.1-16.6,48.2-31.1,32.6
		c0,0,8,14.1,19.3,4.1c3.4-4.8,8.8-13.2,11.3-17.7c6.9-12,21.3-45.7,37.9-33.7l4,3.7C1173,235.7,1166.4,220.9,1149.3,220.9z"/>
	<path display="inline" fill="#00AEEF" d="M1140.9,241.5c-11-22.9-24.1-27.7-35.2-20.6c17.2-0.1,23.8,14.7,23.8,14.7s0,0,0,0
		c1.2,1.4,2.5,3.1,3.8,5.1c15.5,24.4,9,54.6,21.7,52C1167.7,290.2,1158.1,277.3,1140.9,241.5z"/>
	<text transform="matrix(1 0 0 1 1020.7299 524.1877)" display="inline"><tspan x="0" y="0" fill="#00AEEF" font-family="'DomusTitling'" font-size="24.3852px">Wunder</tspan><tspan x="105.4" y="0" fill="#008FD5" font-family="'DomusTitling'" font-size="24.3852px">Minds</tspan></text>
	<path display="inline" fill="#00AEEF" d="M1051.1,473.1c-7.8-13.4-14.1-49.5-25.5-49.3s-9.9,14.6,12.9,53
		c16.8,28.4,30.2,19.1,40,5.4c-7.2,3.1-13.1,3.1-13.1,3.1C1061.2,485.7,1056.5,482.3,1051.1,473.1z"/>
	
		<linearGradient id="SVGID_23_" gradientUnits="userSpaceOnUse" x1="1018.1216" y1="455.5366" x2="1160.1217" y2="455.5366" gradientTransform="matrix(1 -2.951197e-03 2.951197e-03 1 -0.785 1.787)">
		<stop  offset="0" style="stop-color:#00AEEF"/>
		<stop  offset="1" style="stop-color:#008FD5"/>
	</linearGradient>
	<path display="inline" fill="url(#SVGID_23_)" d="M1105.6,422.8c-7,4.4-13.2,13.5-17.6,25.8c-5.9,16.1-12.9,35.9-22.4,36.8
		c0,0,5.9,0,13.1-3.1c3.4-4.8,6.4-10.2,8.9-14.6c6.8-12,21.1-45.8,37.8-33.9l0,0C1125.4,433.8,1117.9,424.5,1105.6,422.8z"/>
	<path display="inline" fill="#008FD5" d="M1125.4,433.8c0,0,3.9,3.6,4,3.7C1128.1,436,1126.7,434.8,1125.4,433.8z"/>
	<path display="inline" fill="#008FD5" d="M1105.6,422.8c-7,4.4-13.2,13.5-17.6,25.8c-5.9,16.1-16.5,48.2-31,32.7
		c0,0,8,14.1,19.3,4.1c3.4-4.8,8.7-13.3,11.3-17.7c6.8-12,21.1-45.8,37.8-33.9l0,0C1125.4,433.8,1117.9,424.5,1105.6,422.8z"/>
	<path display="inline" fill="#008FD5" d="M1105.6,422.8c12.3,1.7,19.8,11,19.8,11l0,0c1.3,0.9,2.7,2.2,4,3.7c0,0,0,0,0,0
		S1122.8,422.8,1105.6,422.8z"/>
	<path display="inline" fill="#00AEEF" d="M1094.6,473.1c-7.8-13.4-14.1-49.5-25.5-49.3c-11.4,0.2-9.9,14.6,12.9,53
		c16.8,28.4,30.2,19.1,40,5.4c-7.2,3.1-13.1,3.1-13.1,3.1C1104.7,485.7,1100,482.3,1094.6,473.1z"/>
	<path display="inline" fill="#00AEEF" d="M1184.5,443.5c-11-22.9-24-27.8-35.2-20.7c12.3,1.7,19.7,11.1,19.7,11.1l0,0
		c2.5,1.8,5.1,4.7,7.7,8.8c15.4,24.5,8.8,54.6,21.6,52.1S1201.6,479.3,1184.5,443.5z"/>
	<linearGradient id="SVGID_24_" gradientUnits="userSpaceOnUse" x1="1062.2157" y1="454.0529" x2="1204.2163" y2="454.0529">
		<stop  offset="0" style="stop-color:#00AEEF"/>
		<stop  offset="1" style="stop-color:#008FD5"/>
	</linearGradient>
	<path display="inline" fill="url(#SVGID_24_)" d="M1149.3,422.8c-7,4.4-13.2,13.5-17.7,25.8c-5.9,16.1-13,35.8-22.6,36.7
		c0,0,5.9,0,13.1-3.1c3.4-4.8,6.4-10.2,9-14.6c6.9-12,21.3-45.7,37.9-33.7l0,0C1169,433.9,1161.6,424.5,1149.3,422.8z"/>
	<path display="inline" fill="#008FD5" d="M1149.3,422.8c-7,4.4-13.2,13.5-17.7,25.8c-5.9,16.1-16.6,48.2-31.1,32.6
		c0,0,8,14.1,19.3,4.1c3.4-4.8,8.8-13.2,11.3-17.7c6.9-12,21.3-45.7,37.9-33.7l4,3.7C1173,437.6,1166.4,422.8,1149.3,422.8z"/>
	<path display="inline" fill="#00AEEF" d="M1140.9,443.4c-11-22.9-24.1-27.7-35.2-20.6c17.2-0.1,23.8,14.7,23.8,14.7s0,0,0,0
		c1.2,1.4,2.5,3.1,3.8,5.1c15.5,24.4,9,54.6,21.7,52C1167.7,492.1,1158.1,479.2,1140.9,443.4z"/>
</g>
<g id="Layer_1_copy" display="none">
	
		<text transform="matrix(1 0 0 1 918.805 213.2084)" display="inline" fill="#231F20" font-family="'DJBFizzaWizzaWowza-Bold'" font-size="127.6577px">WM</text>
	
		<text transform="matrix(1 0 0 1 907.1382 429.0415)" display="inline" fill="#231F20" font-family="'FondianOutline'" font-size="127.6577px">WM</text>
	
		<text transform="matrix(1 0 0 1 1131.3049 412.3748)" display="inline" fill="#231F20" font-family="'Japan'" font-size="127.6577px">WM</text>
	<text transform="matrix(1 0 0 1 886.3049 554.8748)" display="inline" fill="#231F20" font-family="'VAL'" font-size="127.6577px">WM</text>
	
		<text transform="matrix(1 0 0 1 1219.6382 554.8748)" display="inline" fill="#231F20" font-family="'Watermelon'" font-size="127.6577px">WM</text>
</g>
</svg>
