<svg id="Layer_1" data-name="Layer 1" xmlns="http://www.w3.org/2000/svg" viewBox="0 0 120 120"><title>social-m</title><path d="M15.06,98q0-38,0-76.05a2.09,2.09,0,0,0,.07-0.29A11.18,11.18,0,0,1,23.43,12c0.65-.17,1.33-0.26,2-0.38h76.13l0.85,0.14a11.13,11.13,0,0,1,9.45,10.95q0,37.32,0,74.65a10.69,10.69,0,0,1-.08,1.36,11.23,11.23,0,0,1-11.07,9.7q-37.25,0-74.5,0A11.11,11.11,0,0,1,15.44,100C15.27,99.37,15.19,98.68,15.06,98ZM92.29,52.58A29.76,29.76,0,0,1,78.23,85.86,29.7,29.7,0,0,1,47,84.81,29.73,29.73,0,0,1,34.65,52.59H26.25V53q0,20.14,0,40.29a3.7,3.7,0,0,0,3.89,3.89H96.77a4.54,4.54,0,0,0,.9-0.07,3.68,3.68,0,0,0,3-3.84q0-20.14,0-40.29V52.58H92.29ZM44.86,60A18.6,18.6,0,1,0,63.46,41.4,18.59,18.59,0,0,0,44.86,60ZM82.09,32v5.48s0,0.05,0,.08a3.7,3.7,0,0,0,3.8,3.79h11a3.69,3.69,0,0,0,3.82-3.81q0-5.48,0-11a3.7,3.7,0,0,0-3.84-3.83H85.95a3.7,3.7,0,0,0-3.86,3.85C82.09,28.44,82.09,30.24,82.09,32Z"/></svg>