<svg id="Layer_1" data-name="Layer 1" xmlns="http://www.w3.org/2000/svg" viewBox="0 0 120 120"><title>social-m</title><path d="M99,93.17H53.36a9,9,0,0,1-.72-2.42q-0.06-26.34,0-52.68c0-.42,0-0.83,0-1.25a2.39,2.39,0,0,1,2.25-2.51c1.17-.15,2.31-0.44,3.47-0.66H63.7a4,4,0,0,0,.81.29A29.45,29.45,0,0,1,89.56,55.79c0.42,1.6.66,3.24,1,4.87,9.24-3.08,16.48.37,20.21,6,1.54,2.34,2.16,5.27,3.2,7.93V78.2a19.25,19.25,0,0,1-4,8.93A18.2,18.2,0,0,1,99,93.17Z"/><path d="M43,93.17c-1.69-.7-2.2-1.93-2.19-3.76,0.07-16.15,0-32.3,0-48.45a5.08,5.08,0,0,1,1.83-4.41c2.26-1.74,4.87-.75,5.34,2a16.54,16.54,0,0,1,.19,2.66c0,16,0,32.06,0,48.09,0,1.87-.47,3.23-2.36,3.82H43Z"/><path d="M32,93.17c-2-.56-2.64-1.89-2.62-4,0.1-9.85,0-19.7.05-29.55a3.67,3.67,0,0,1,3-3.85,3.58,3.58,0,0,1,3.92,2.11,4.41,4.41,0,0,1,.33,1.71c0,10.15,0,20.3,0,30.44,0,1.87-1.1,2.59-2.58,3.11H32Z"/><path d="M6.32,67.15a10.19,10.19,0,0,1,1-1.61,3.37,3.37,0,0,1,3.69-1,3.31,3.31,0,0,1,2.58,3.23c0.07,5.14,0,10.29,0,15.43a2.73,2.73,0,0,1-2.3,2.93A4.07,4.07,0,0,1,7,84.72a8.45,8.45,0,0,1-.72-1.17V67.15Z"/><path d="M25.21,71.78q0,8.1,0,16.2c0,2.5-1,3.49-3.6,3.52s-3.68-.92-3.69-3.4q0-16.29,0-32.58c0-2.63,1.34-4.14,3.57-4.16s3.71,1.53,3.71,4.22Q25.22,63.68,25.21,71.78Z"/></svg>