<svg id="Layer_1" data-name="Layer 1" xmlns="http://www.w3.org/2000/svg" viewBox="0 0 120 120"><title>social-m</title><path d="M108.56,31.95v0.57c-0.19.2-.39,0.39-0.55,0.61a41.73,41.73,0,0,1-7.79,8A2.8,2.8,0,0,0,99,43.47a92.19,92.19,0,0,1-.87,10.41c-2.51,14-9,25.9-19.95,35.15a52.26,52.26,0,0,1-24.38,11.54c-1.89.36-3.8,0.63-5.7,0.94h-12l-3.64-.57a57.06,57.06,0,0,1-20.1-7.44A6,6,0,0,1,11.8,93l0-.27a41.07,41.07,0,0,0,28.85-8.23,22.08,22.08,0,0,1-11.47-4.17,19.14,19.14,0,0,1-6.92-9.68c1.51,0,2.87,0,4.22,0s2.67-.18,4-0.28l0-.35a19.58,19.58,0,0,1-11.07-7.12,18.63,18.63,0,0,1-4.25-12.51c1.46,0.54,2.8,1.13,4.18,1.52s2.78,0.58,4.18.85l0.14-.29a19.77,19.77,0,0,1-7.88-12A20.41,20.41,0,0,1,18,26C28.93,38.57,42.44,45.83,59.16,46.91c-0.08-1-.17-1.87-0.23-2.75A19.68,19.68,0,0,1,70.41,24.28a47.34,47.34,0,0,1,5.94-1.86h4.57c1.11,0.22,2.24.37,3.32,0.67a19.4,19.4,0,0,1,8.27,4.67,2.26,2.26,0,0,0,2.25.62,48.72,48.72,0,0,0,9.49-3.53c0.58-.27,1.16-0.51,2-0.86a24,24,0,0,1-7.84,10.6A39.1,39.1,0,0,0,108.56,31.95Z"/></svg>