<svg id="Layer_1" data-name="Layer 1" xmlns="http://www.w3.org/2000/svg" viewBox="0 0 120 120"><title>social-m</title><path d="M74.32,58.45V12.37c5.12,1.75,10.06,3,14.6,5.08,10.43,4.84,18.7,11.88,21.29,23.81a37.64,37.64,0,0,1,1.1,7.55c0.08,9.31.2,18.63-.16,27.93-0.56,14.21-8.46,23.52-20.73,29.71-11.37,5.74-23.49,6.8-35.93,6A56.84,56.84,0,0,1,27,103.56c-9.34-6-14.79-14.39-15.61-25.5-0.88-11.84-1.29-23.7.59-35.49A29,29,0,0,1,22.55,24.3C33.83,15,47,11.72,61.65,12v78H74.12V69.52c0.78,1,1.22,1.44,1.56,2,2.32,3.63,4.73,7.2,6.89,10.92a14.28,14.28,0,0,0,11.67,7.53c2.61,0.23,5.25,0,8.11,0V78.81a0.76,0.76,0,0,0-.34-0.26c-5.76.59-9.16-2.5-11.65-7.24-1.38-2.63-4.29-5.14-4.24-7.66s2.9-5,4.61-7.38c3.35-4.74,6.76-9.42,10.14-14.14,0.5-.69.94-1.42,1.74-2.62-5,0-9.5-.07-14,0.08-0.64,0-1.37,1-1.86,1.65C82.7,46.76,78.72,52.33,74.32,58.45ZM19.27,84c7.49,7.85,24.57,9.1,33,2.45,5.47-4.34,6.52-10.12,5.16-16.59-1.25-5.92-5.32-8.84-10.92-10-2.83-.57-5.71-0.94-8.56-1.4-2.34-.37-4.32-1.17-4.37-4,0-2.4,2-4.24,4.93-4.5,3.93-.35,7.71,0,10.58,2.43L56.72,45c-5.86-6.6-20.15-8.17-28.25-2.89-5.88,3.83-7.73,9.47-6.68,16.23,1,6.2,4.9,9.5,10.72,10.79,3.07,0.68,6.23,1,9.34,1.53s5,3.13,3.53,5.69a7,7,0,0,1-4.48,3,18,18,0,0,1-13.82-3Z"/></svg>