<svg id="Layer_1" data-name="Layer 1" xmlns="http://www.w3.org/2000/svg" viewBox="0 0 120 120"><defs><style>.cls-1{fill:#fff;}</style></defs><title>social-m</title><path d="M62,98.88C53,98.51,44.41,98.17,35.8,97.78c-3.6-.16-7.18-0.56-10.78-0.61-6.39-.09-11.15-5.35-12-10.62a155.56,155.56,0,0,1-1.69-28A150.87,150.87,0,0,1,13,39.39,12.08,12.08,0,0,1,24.14,29.21c13.71-.86,27.44-1.66,41.18-1.33,10.73,0.26,21.45.81,32.17,1.35,6.29,0.32,10.84,4.74,11.69,11a165.11,165.11,0,0,1,1.57,25.18,154.76,154.76,0,0,1-1.73,21c-0.8,5.14-5,9.65-9.88,10.54a44,44,0,0,1-5.82.47C82.76,98,72.21,98.42,62,98.88ZM49.79,77.18L76.68,62.74,49.79,48.31V77.18Z"/><path class="cls-1" d="M49.79,77.18V48.31L76.68,62.74Z"/></svg>